<?xml version="1.0" encoding="UTF-8"?>
<svg version="1.1" xmlns="http://www.w3.org/2000/svg" width="297" height="310">
<path d="M0 0 C2.1861229 0.54719804 4.37370148 1.08860454 6.5625 1.625 C8.37529639 2.08215964 10.18790277 2.54007684 12 3 C12 3.66 12 4.32 12 5 C12.886875 5.12375 13.77375 5.2475 14.6875 5.375 C17.70387502 5.94412736 20.20326054 6.76614436 23 8 C23 8.66 23 9.32 23 10 C23.721875 10.103125 24.44375 10.20625 25.1875 10.3125 C28.27793421 11.06793947 30.41743841 12.15531315 33 14 C33 14.66 33 15.32 33 16 C34.31484375 16.37511719 34.31484375 16.37511719 35.65625 16.7578125 C39.14927548 18.05545514 41.54502312 19.62480209 44.5 21.875 C47.51294775 24.14395929 50.49182365 26.37106043 53.6875 28.375 C54.450625 28.91125 55.21375 29.4475 56 30 C56 30.66 56 31.32 56 32 C56.82564453 32.13148437 56.82564453 32.13148437 57.66796875 32.265625 C60.71366378 33.22473834 62.76377659 34.83214872 65.3125 36.75 C68.56917575 39.18595854 71.82715533 41.58447935 75.1875 43.875 C76.5796875 44.926875 76.5796875 44.926875 78 46 C78 46.66 78 47.32 78 48 C78.70125 48.226875 79.4025 48.45375 80.125 48.6875 C83.61648231 50.28143758 86.08579765 52.51982778 89 55 C91.21587348 56.27852287 91.21587348 56.27852287 93 57 C93 57.66 93 58.32 93 59 C96.75157363 57.74947546 97.21406945 56.06933275 99.03515625 52.72265625 C100.15777351 50.71830721 101.08642776 49.30122912 103 48 C105.6875 47.8125 105.6875 47.8125 108 48 C110.25433614 53.56069582 110.59961828 59.0785651 111 65 C111.66 65 112.32 65 113 65 C113.5064814 67.70726366 114.005351 70.41557124 114.5 73.125 C114.64308594 73.88554688 114.78617187 74.64609375 114.93359375 75.4296875 C115.70312456 79.68042914 116.16644376 83.65859197 116 88 C116.66 88 117.32 88 118 88 C118.11593506 88.68102783 118.23187012 89.36205566 118.35131836 90.0637207 C118.87761516 93.14706773 119.40751507 96.22978486 119.9375 99.3125 C120.11990234 100.38435547 120.30230469 101.45621094 120.49023438 102.56054688 C120.66748047 103.58857422 120.84472656 104.61660156 121.02734375 105.67578125 C121.27085571 107.0975769 121.27085571 107.0975769 121.51928711 108.5480957 C121.96971372 111.12213911 121.96971372 111.12213911 123 114 C118.04323497 116.52574014 112.88453894 116.60224462 107.4375 117 C101.68237568 117.43253544 96.01764498 117.94893506 90.33203125 118.9609375 C82.68319319 120.29872405 74.97772828 120.94079215 67.25 121.625 C65.76298352 121.7600063 64.27600401 121.89542047 62.7890625 122.03125 C59.19312109 122.35885611 55.59671527 122.6809881 52 123 C52.66910906 117.94294414 54.15676409 115.21899522 57 111 C57 106.67849437 56.43257326 105.42362163 54 102 C53.01 101.34 52.02 100.68 51 100 C50.67 100.66 50.34 101.32 50 102 C49.443125 101.4225 48.88625 100.845 48.3125 100.25 C44.84743635 96.87858672 41.4416981 93.97408804 37 92 C37 91.34 37 90.68 37 90 C36.4131543 89.87560547 35.82630859 89.75121094 35.22167969 89.62304688 C33.00942264 89.00264248 31.4117657 88.215644 29.453125 87.03125 C28.78015381 86.62890137 28.10718262 86.22655273 27.41381836 85.81201172 C26.6997583 85.37904785 25.98569824 84.94608398 25.25 84.5 C23.7364746 83.59501904 22.22212954 82.69140769 20.70703125 81.7890625 C19.93311035 81.32790039 19.15918945 80.86673828 18.36181641 80.39160156 C14.58388277 78.16561213 10.76385881 76.01637268 6.9375 73.875 C5.89287598 73.29008789 5.89287598 73.29008789 4.82714844 72.69335938 C3.218884 71.79416738 1.60956985 70.89685319 0 70 C0 69.34 0 68.68 0 68 C-0.825 67.773125 -1.65 67.54625 -2.5 67.3125 C-5.48251445 66.19405708 -7.27500604 65.17006086 -9.8125 63.375 C-14.21588462 60.51533068 -17.87044251 60.27282135 -23 61 C-26.31052903 61.80924043 -27.7382836 62.7600933 -30.25 65.0625 C-32.59709691 69.00226981 -33.20977153 72.43343515 -33 77 C-31.24560251 81.89384564 -28.79611467 85.48890824 -24.1640625 87.9921875 C-17.97474004 90.87457955 -11.49036458 92.9147423 -5 95 C-3.43675365 95.5185889 -1.87418044 96.03921441 -0.3125 96.5625 C0.39132813 96.79710938 1.09515625 97.03171875 1.8203125 97.2734375 C5.546875 98.515625 9.2734375 99.7578125 13 101 C13 101.66 13 102.32 13 103 C14.0725 103.12375 15.145 103.2475 16.25 103.375 C19.37863615 103.89643936 21.33480424 104.40088254 24 106 C24 106.66 24 107.32 24 108 C24.721875 108.103125 25.44375 108.20625 26.1875 108.3125 C35.39408939 110.56299963 45.20087234 119.73133863 51 127 C51 127.99 51 128.98 51 130 C51.639375 130.268125 52.27875 130.53625 52.9375 130.8125 C55 132 55 132 56 135 C56.45375 135.433125 56.9075 135.86625 57.375 136.3125 C60.76918378 139.83722931 62 143.16304825 62 148 C62.66 148 63.32 148 64 148 C64.27714844 149.14339844 64.55429688 150.28679687 64.83984375 151.46484375 C65.20554378 152.95577465 65.57143929 154.44665761 65.9375 155.9375 C66.11990234 156.69224609 66.30230469 157.44699219 66.49023438 158.22460938 C67.13839179 161.91279821 67.13839179 161.91279821 69 165 C71.07019622 177.19115549 71.29546133 191.30679972 67 203 C65.96252207 206.65660113 64.98016194 210.32765991 64 214 C63.34 214 62.68 214 62 214 C61.896875 214.70125 61.79375 215.4025 61.6875 216.125 C60.15208833 222.54581243 56.34618088 227.57065693 52.4375 232.75 C51.90882324 233.45157227 51.38014648 234.15314453 50.83544922 234.87597656 C44.90145339 242.61597112 38.51677778 250.03187963 30 255 C29.34386719 255.45761719 28.68773437 255.91523438 28.01171875 256.38671875 C20.2845297 261.54250708 11.8873791 263.68115161 3 266 C2.04601318 266.27372437 2.04601318 266.27372437 1.07275391 266.55297852 C-1.30838517 267.06650804 -3.48614762 267.12957964 -5.921875 267.1328125 C-7.33726562 267.13474609 -7.33726562 267.13474609 -8.78125 267.13671875 C-9.7609375 267.13285156 -10.740625 267.12898438 -11.75 267.125 C-13.19632812 267.13080078 -13.19632812 267.13080078 -14.671875 267.13671875 C-29.13257212 267.11707106 -29.13257212 267.11707106 -35 264 C-36.175625 263.72285156 -37.35125 263.44570313 -38.5625 263.16015625 C-43.24886589 262.02193289 -47.57208203 260.26281251 -52 258.375 C-53.16208984 257.88773437 -53.16208984 257.88773437 -54.34765625 257.390625 C-56.23392332 256.59885858 -58.11727701 255.80015727 -60 255 C-60 254.34 -60 253.68 -60 253 C-60.78375 252.814375 -61.5675 252.62875 -62.375 252.4375 C-69.92576625 249.44323062 -75.89371811 244.59698017 -81.02734375 238.37109375 C-87.25070521 230.8907365 -93.8836937 223.66428496 -101.33984375 217.40234375 C-103.70459079 215.40482802 -105.83915607 213.21486503 -108 211 C-110.02592648 208.96992203 -112.0560348 206.94407013 -114.0859375 204.91796875 C-115.60851179 203.39228717 -117.11890642 201.85445295 -118.625 200.3125 C-121.30340703 197.70457737 -124.1013562 195.35936124 -127 193 C-130.56227747 194.01779356 -132.33719055 195.21378982 -134.5 198.125 C-137 201 -137 201 -139.6875 201.5625 C-142 201 -142 201 -144 198 C-144.93770885 192.89193365 -145.32207387 187.73180264 -145.71875 182.55859375 C-145.78132492 181.7612381 -145.84389984 180.96388245 -145.90837097 180.1423645 C-146.1085235 177.57429396 -146.30463874 175.00593918 -146.5 172.4375 C-146.56692047 171.56705048 -146.63384094 170.69660095 -146.70278931 169.79977417 C-147.71870009 156.54154964 -148.56248022 143.29154919 -149 130 C-124.6492584 129.83862172 -100.33987476 130.29028361 -76 131 C-75.77685547 135.71484375 -75.77685547 135.71484375 -77.78515625 138.28125 C-79.30472199 139.76171885 -80.82555866 141.24088431 -82.34765625 142.71875 C-84.28450444 144.89168023 -84.28450444 144.89168023 -83.8671875 147.66796875 C-82.79805706 150.54306278 -81.6316067 151.4848325 -79 153 C-78.34 153 -77.68 153 -77 153 C-77 153.66 -77 154.32 -77 155 C-76.4225 155.04125 -75.845 155.0825 -75.25 155.125 C-71.91138753 156.42334929 -70.96090044 159.05864935 -69 162 C-67.02369593 163.36821051 -65.02790984 164.70951192 -63 166 C-63 166.66 -63 167.32 -63 168 C-62.319375 168.20625 -61.63875 168.4125 -60.9375 168.625 C-57.58633682 170.19362957 -55.27350754 172.19098762 -52.55078125 174.66015625 C-51.02350546 176.09089081 -51.02350546 176.09089081 -49 177 C-49 177.66 -49 178.32 -49 179 C-48.42894531 179.26167969 -47.85789062 179.52335938 -47.26953125 179.79296875 C-44.83337535 181.08861793 -42.83993338 182.58825941 -40.6875 184.3125 C-37.90244584 186.52038833 -35.10726437 188.66128421 -32.1875 190.6875 C-29.48789125 192.64603968 -27.30393451 194.61378211 -25 197 C-23.515 197.99 -23.515 197.99 -22 199 C-22 199.66 -22 200.32 -22 201 C-16.18739218 202.93753594 -9.89073573 202.17814715 -4 201 C-4 200.34 -4 199.68 -4 199 C-3.34 199 -2.68 199 -2 199 C0.75165283 194.14414206 0.31398162 189.25592647 -1 184 C-6.5652548 176.34777465 -16.65796561 171.9974926 -25 168 C-27.5102291 166.75075962 -30.0155435 165.492168 -32.51953125 164.23046875 C-34.11078436 163.44110697 -35.71182345 162.67100597 -37.32421875 161.92578125 C-42.77369678 159.35867176 -47.79312118 156.31272907 -52.8125 153 C-53.76419067 152.37702026 -53.76419067 152.37702026 -54.73510742 151.74145508 C-64.18590447 145.38887041 -74.44183546 134.86481166 -78.96875 124.2265625 C-80.74925638 120.38228735 -83.04267665 116.78627505 -85.2722168 113.18579102 C-87.75035683 109.0077453 -88.59492511 105.74602664 -89 101 C-89.66 101 -90.32 101 -91 101 C-92.82061744 93.7976832 -94.29273906 86.80414043 -94.8125 79.38671875 C-94.98022062 76.78201283 -94.98022062 76.78201283 -95.625 73.375 C-95.74875 72.59125 -95.8725 71.8075 -96 71 C-95.67 70.67 -95.34 70.34 -95 70 C-94.58295998 66.56889801 -94.23191473 63.13976663 -93.92578125 59.69726562 C-93.14515271 52.1357536 -90.48712273 45.86404914 -87.3125 39 C-86.87550781 38.05125 -86.43851563 37.1025 -85.98828125 36.125 C-85.66214844 35.42375 -85.33601563 34.7225 -85 34 C-84.34 34 -83.68 34 -83 34 C-82.731875 33.030625 -82.46375 32.06125 -82.1875 31.0625 C-81.5996875 29.5465625 -81.5996875 29.5465625 -81 28 C-80.01 27.67 -79.02 27.34 -78 27 C-77.29605388 25.68596724 -76.63654342 24.3479743 -76 23 C-73.28242414 19.06420047 -71.36530711 17.72314754 -67 16 C-66.5359375 15.01 -66.5359375 15.01 -66.0625 14 C-65 12 -65 12 -61.875 10.75 C-60.92625 10.5025 -59.9775 10.255 -59 10 C-59 9.34 -59 8.68 -59 8 C-52.375 5 -52.375 5 -49 5 C-49 4.34 -49 3.68 -49 3 C-45.00688751 1.9708473 -41.00492032 0.98206778 -37 0 C-36.21109375 -0.21269531 -35.4221875 -0.42539062 -34.609375 -0.64453125 C-23.62190273 -3.31456385 -10.83675112 -3.22173682 0 0 Z " fill="#EEAEAE" transform="translate(165,22)"/>
<path d="M0 0 C2.1861229 0.54719804 4.37370148 1.08860454 6.5625 1.625 C8.37529639 2.08215964 10.18790277 2.54007684 12 3 C12 3.66 12 4.32 12 5 C12.886875 5.12375 13.77375 5.2475 14.6875 5.375 C17.70387502 5.94412736 20.20326054 6.76614436 23 8 C23 8.66 23 9.32 23 10 C24.0828125 10.1546875 24.0828125 10.1546875 25.1875 10.3125 C28.27793421 11.06793947 30.41743841 12.15531315 33 14 C33 14.66 33 15.32 33 16 C34.31484375 16.37511719 34.31484375 16.37511719 35.65625 16.7578125 C39.14927548 18.05545514 41.54502312 19.62480209 44.5 21.875 C47.51294775 24.14395929 50.49182365 26.37106043 53.6875 28.375 C54.450625 28.91125 55.21375 29.4475 56 30 C56 30.66 56 31.32 56 32 C56.82564453 32.13148437 56.82564453 32.13148437 57.66796875 32.265625 C60.71366378 33.22473834 62.76377659 34.83214872 65.3125 36.75 C68.56917575 39.18595854 71.82715533 41.58447935 75.1875 43.875 C76.5796875 44.926875 76.5796875 44.926875 78 46 C78 46.66 78 47.32 78 48 C78.70125 48.226875 79.4025 48.45375 80.125 48.6875 C83.61648231 50.28143758 86.08579765 52.51982778 89 55 C91.21587348 56.27852287 91.21587348 56.27852287 93 57 C93 57.66 93 58.32 93 59 C96.75157363 57.74947546 97.21406945 56.06933275 99.03515625 52.72265625 C100.15777351 50.71830721 101.08642776 49.30122912 103 48 C105.6875 47.8125 105.6875 47.8125 108 48 C110.25433614 53.56069582 110.59961828 59.0785651 111 65 C111.66 65 112.32 65 113 65 C113.5064814 67.70726366 114.005351 70.41557124 114.5 73.125 C114.64308594 73.88554688 114.78617188 74.64609375 114.93359375 75.4296875 C115.70312456 79.68042914 116.16644376 83.65859197 116 88 C116.66 88 117.32 88 118 88 C118.17390259 89.02154175 118.17390259 89.02154175 118.35131836 90.0637207 C118.87761516 93.14706773 119.40751507 96.22978486 119.9375 99.3125 C120.21110352 100.9202832 120.21110352 100.9202832 120.49023438 102.56054688 C120.66748047 103.58857422 120.84472656 104.61660156 121.02734375 105.67578125 C121.18968506 106.62364502 121.35202637 107.57150879 121.51928711 108.5480957 C121.96971372 111.12213911 121.96971372 111.12213911 123 114 C118.04323497 116.52574014 112.88453894 116.60224462 107.4375 117 C101.68237568 117.43253544 96.01764498 117.94893506 90.33203125 118.9609375 C82.68319319 120.29872405 74.97772828 120.94079215 67.25 121.625 C65.76298352 121.7600063 64.27600401 121.89542047 62.7890625 122.03125 C59.19312109 122.35885611 55.59671527 122.6809881 52 123 C52.66910906 117.94294414 54.15676409 115.21899522 57 111 C57 106.67849437 56.43257326 105.42362163 54 102 C53.01 101.34 52.02 100.68 51 100 C50.67 100.66 50.34 101.32 50 102 C49.443125 101.4225 48.88625 100.845 48.3125 100.25 C44.84743635 96.87858672 41.4416981 93.97408804 37 92 C37 91.34 37 90.68 37 90 C36.4131543 89.87560547 35.82630859 89.75121094 35.22167969 89.62304688 C33.00942264 89.00264248 31.4117657 88.215644 29.453125 87.03125 C28.78015381 86.62890137 28.10718262 86.22655273 27.41381836 85.81201172 C26.6997583 85.37904785 25.98569824 84.94608398 25.25 84.5 C23.7364746 83.59501904 22.22212954 82.69140769 20.70703125 81.7890625 C19.93311035 81.32790039 19.15918945 80.86673828 18.36181641 80.39160156 C14.58388277 78.16561213 10.76385881 76.01637268 6.9375 73.875 C5.89287598 73.29008789 5.89287598 73.29008789 4.82714844 72.69335938 C3.218884 71.79416738 1.60956985 70.89685319 0 70 C0 69.34 0 68.68 0 68 C-0.825 67.773125 -1.65 67.54625 -2.5 67.3125 C-5.48251445 66.19405708 -7.27500604 65.17006086 -9.8125 63.375 C-14.21588462 60.51533068 -17.87044251 60.27282135 -23 61 C-26.31052903 61.80924043 -27.7382836 62.7600933 -30.25 65.0625 C-32.59709691 69.00226981 -33.20977153 72.43343515 -33 77 C-31.24560251 81.89384564 -28.79611467 85.48890824 -24.1640625 87.9921875 C-17.97474004 90.87457955 -11.49036458 92.9147423 -5 95 C-3.43675365 95.5185889 -1.87418044 96.03921441 -0.3125 96.5625 C0.39132813 96.79710938 1.09515625 97.03171875 1.8203125 97.2734375 C7.41015625 99.13671875 7.41015625 99.13671875 13 101 C13 101.66 13 102.32 13 103 C14.0725 103.12375 15.145 103.2475 16.25 103.375 C19.37863615 103.89643936 21.33480424 104.40088254 24 106 C24 106.66 24 107.32 24 108 C24.721875 108.103125 25.44375 108.20625 26.1875 108.3125 C35.57486998 110.60719044 44.91145416 119.78333123 51 127 C51 127.66 51 128.32 51 129 C34.54512056 129.23371572 18.09078025 129.40999609 1.63464165 129.51812172 C-6.00650675 129.5696638 -13.64662335 129.63991467 -21.28710938 129.75439453 C-27.94750783 129.85414176 -34.60715911 129.9185983 -41.26828372 129.94088495 C-44.79504271 129.95391204 -48.31966451 129.9844622 -51.84573746 130.05730057 C-55.78444363 130.13800098 -59.72106919 130.13989486 -63.66064453 130.13525391 C-64.82661667 130.17120667 -65.99258881 130.20715942 -67.19389343 130.24420166 C-70.42649475 130.20293537 -72.9489402 130.07526876 -76 129 C-78.81132071 125.9836301 -80.38460605 122.76266897 -82 119 C-82.69597049 117.69526829 -83.40071623 116.39515002 -84.1171875 115.1015625 C-84.98730469 113.38066406 -84.98730469 113.38066406 -85.875 111.625 C-86.47054687 110.46226562 -87.06609375 109.29953125 -87.6796875 108.1015625 C-89 105 -89 105 -89 101 C-89.66 101 -90.32 101 -91 101 C-92.82061744 93.7976832 -94.29273906 86.80414043 -94.8125 79.38671875 C-94.98022062 76.78201283 -94.98022062 76.78201283 -95.625 73.375 C-95.74875 72.59125 -95.8725 71.8075 -96 71 C-95.505 70.505 -95.505 70.505 -95 70 C-94.58295998 66.56889801 -94.23191473 63.13976663 -93.92578125 59.69726562 C-93.14515271 52.1357536 -90.48712273 45.86404914 -87.3125 39 C-86.87550781 38.05125 -86.43851563 37.1025 -85.98828125 36.125 C-85.66214844 35.42375 -85.33601563 34.7225 -85 34 C-84.34 34 -83.68 34 -83 34 C-82.731875 33.030625 -82.46375 32.06125 -82.1875 31.0625 C-81.795625 30.051875 -81.40375 29.04125 -81 28 C-80.01 27.67 -79.02 27.34 -78 27 C-77.29605388 25.68596724 -76.63654342 24.3479743 -76 23 C-73.28242414 19.06420047 -71.36530711 17.72314754 -67 16 C-66.690625 15.34 -66.38125 14.68 -66.0625 14 C-65 12 -65 12 -61.875 10.75 C-60.92625 10.5025 -59.9775 10.255 -59 10 C-59 9.34 -59 8.68 -59 8 C-52.375 5 -52.375 5 -49 5 C-49 4.34 -49 3.68 -49 3 C-45.00688751 1.9708473 -41.00492032 0.98206778 -37 0 C-36.21109375 -0.21269531 -35.4221875 -0.42539062 -34.609375 -0.64453125 C-23.62190273 -3.31456385 -10.83675112 -3.22173682 0 0 Z " fill="#9BB6A9" transform="translate(165,22)"/>
<path d="" fill="#FFFFFF" transform="translate(0,0)"/>
<path d="" fill="#000000" transform="translate(0,0)"/>
<path d="" fill="#FFFFFF" transform="translate(0,0)"/>
<path d="" fill="#00FFFF" transform="translate(0,0)"/>
<path d="" fill="#00FF00" transform="translate(0,0)"/>
<path d="" fill="#FFFFFF" transform="translate(0,0)"/>
</svg>
