<?xml version="1.0" encoding="UTF-8"?>
<svg version="1.1" xmlns="http://www.w3.org/2000/svg" width="2033" height="310">
<path d="M0 0 C16.83 0 33.66 0 51 0 C53.68216761 6.70541903 56.21053501 13.33780692 58.48339844 20.17553711 C58.80585037 21.13778198 59.12830231 22.10002686 59.46052551 23.09143066 C60.51321205 26.23571819 61.56151371 29.38144517 62.609375 32.52734375 C63.34339489 34.72551281 64.0775482 36.92363732 64.81182861 39.12171936 C66.34355201 43.70945637 67.8729701 48.29795412 69.40087891 52.88696289 C71.361825 58.77562546 73.32962291 64.66197294 75.29925156 70.54773617 C76.81391084 75.07701743 78.32443444 79.60766965 79.83374786 84.13873482 C80.55800369 86.31098813 81.28368199 88.48276769 82.01079559 90.65406609 C83.02288188 93.67804278 84.02926737 96.70385765 85.03417969 99.73022461 C85.33646988 100.62945145 85.63876007 101.52867828 85.95021057 102.45515442 C86.22209702 103.27782806 86.49398346 104.10050171 86.77410889 104.94810486 C87.01226696 105.66241134 87.25042503 106.37671782 87.49580002 107.11266994 C88 109 88 109 88 112 C88.66 112 89.32 112 90 112 C90.1194397 110.72664291 90.23887939 109.45328583 90.36193848 108.14134216 C90.94640495 102.91133634 92.02590316 97.86157783 93.20898438 92.73852539 C93.43185623 91.75531311 93.65472809 90.77210083 93.88435364 89.75909424 C94.61595634 86.53748582 95.35468843 83.31756099 96.09375 80.09765625 C96.60595234 77.85094807 97.11778764 75.60415618 97.62927246 73.35728455 C98.69880887 68.66382735 99.77168986 63.97115191 100.84716797 59.27905273 C102.22775058 53.25530498 103.60160498 47.23004776 104.97319794 41.20424747 C106.02800324 36.572251 107.08548362 31.94086872 108.14387512 27.30969048 C108.65166968 25.08699417 109.15882216 22.86415108 109.66532898 20.64116096 C110.3712921 17.54540964 111.08064553 14.4504555 111.79101562 11.35571289 C112.00091629 10.43261826 112.21081696 9.50952362 112.42707825 8.55845642 C112.62053329 7.71888397 112.81398834 6.87931152 113.01330566 6.01429749 C113.18069496 5.28302171 113.34808426 4.55174593 113.52054596 3.79831028 C114 2 114 2 115 0 C130.84 0 146.68 0 163 0 C167.53515512 16.31373819 171.99549723 32.64248508 176.33984375 49.0078125 C176.56775227 49.86634575 176.79566078 50.724879 177.03047562 51.60942841 C178.43045964 56.88514827 179.82849342 62.16138358 181.22583008 67.43780518 C183.12256675 74.59969415 185.02085656 81.7611703 186.92080879 88.92220688 C187.5780858 91.4009702 188.23415288 93.88005153 188.89012146 96.35916138 C189.28859596 97.86201263 189.68711726 99.36485147 190.08569336 100.86767578 C190.26589523 101.55003799 190.44609711 102.23240021 190.63175964 102.93544006 C191.35381932 105.65408167 192.11013269 108.33039808 193 111 C195.54215569 102.29079569 198.08383606 93.58145283 200.62498569 84.87195492 C201.83859761 80.71249533 203.05236376 76.55308087 204.26647949 72.39376831 C211.06853557 49.10236424 211.06853557 49.10236424 217.80859375 25.79296875 C218.07239334 24.87650574 218.33619293 23.96004272 218.60798645 23.01580811 C219.76497264 18.99469638 220.91840454 14.97262518 222.06567383 10.94873047 C222.45513652 9.59209243 222.84469564 8.23548207 223.234375 6.87890625 C223.55631836 5.7504126 223.87826172 4.62191895 224.20996094 3.45922852 C225 1 225 1 226 0 C227.59610982 -0.09333705 229.19633428 -0.11745372 230.79516602 -0.11352539 C231.81614883 -0.11344986 232.83713165 -0.11337433 233.88905334 -0.11329651 C234.9994548 -0.10813522 236.10985626 -0.10297394 237.25390625 -0.09765625 C238.94978127 -0.09553383 238.94978127 -0.09553383 240.67991638 -0.09336853 C244.30747065 -0.08775019 247.93496424 -0.07519458 251.5625 -0.0625 C254.01497307 -0.05748736 256.4674471 -0.05292405 258.91992188 -0.04882812 C264.94663545 -0.0377748 270.97331339 -0.02101884 277 0 C273.54447092 15.02298469 269.00964208 29.74398028 264.60557556 44.50847244 C262.74236107 50.7599309 260.88832749 57.01412463 259.03290939 63.26790047 C258.53675713 64.94007998 258.04048142 66.61222288 257.54408646 68.28433037 C253.31156649 82.54250021 249.11119469 96.80996698 244.92578125 111.08203125 C244.62757414 112.09884098 244.32936703 113.11565071 244.02212334 114.16327286 C241.35350141 123.26351634 238.68654547 132.36424761 236.02120972 141.4654541 C234.36393085 147.12434903 232.70590242 152.78302369 231.046875 158.44140625 C230.78483339 159.33514828 230.52279179 160.2288903 230.25280952 161.14971542 C225.56833538 177.12019037 220.80335414 193.06482198 216 209 C199.83 209 183.66 209 167 209 C165.7934375 204.43929687 164.586875 199.87859375 163.34375 195.1796875 C162.55992756 192.21743951 161.7760876 189.25519618 160.9921875 186.29296875 C159.75927583 181.63399527 158.52641466 176.97500848 157.29394531 172.31591797 C151.8855897 151.87112422 146.45829992 131.4315206 141 111 C139.22767369 115.97620225 138.00527026 120.98342589 136.84521484 126.12646484 C136.64009781 127.02466949 136.43498077 127.92287415 136.22364807 128.84829712 C135.54990015 131.80187076 134.880396 134.75638894 134.2109375 137.7109375 C133.74323258 139.76508445 133.27526212 141.81917095 132.80703735 143.87319946 C131.57799553 149.26809645 130.35255559 154.66380537 129.12786865 160.05969238 C127.65630026 166.5398425 126.18025193 173.01897345 124.70495605 179.49827576 C122.46654114 189.33140812 120.23381417 199.16581636 118 209 C101.83 209 85.66 209 69 209 C64.49948405 197.74871011 64.49948405 197.74871011 63.20751953 193.86547852 C62.91207245 192.98217361 62.61662537 192.09886871 62.31222534 191.188797 C62.0055191 190.26153305 61.69881287 189.3342691 61.3828125 188.37890625 C61.04959991 187.37917282 60.71638733 186.37943939 60.37307739 185.34941101 C59.28722927 182.08814702 58.20597586 178.82538187 57.125 175.5625 C56.35786034 173.25419423 55.59060608 170.94592655 54.82324219 168.63769531 C49.96759715 154.0154089 45.17632258 139.37298255 40.42904663 124.71520996 C35.08952906 108.23684215 29.61596006 91.80398859 24.12662888 75.375103 C11.85930663 38.65829062 11.85930663 38.65829062 6.0317688 20.77792358 C5.47356628 19.06522147 4.9143988 17.35283352 4.35421753 15.64077759 C3.60145204 13.3383613 2.85267111 11.03469547 2.10546875 8.73046875 C1.88783875 8.06602753 1.67020874 7.4015863 1.44598389 6.7170105 C0 2.23045345 0 2.23045345 0 0 Z " fill="#ECADAD" transform="translate(1379,49)"/>
<path d="M0 0 C16.5 0 33 0 50 0 C54.4995901 11.24897525 54.4995901 11.24897525 56.08032227 15.78613281 C56.43978943 16.81421555 56.79925659 17.84229828 57.1696167 18.90153503 C57.54805725 19.99105972 57.9264978 21.08058441 58.31640625 22.203125 C58.72586487 23.37567337 59.13532349 24.54822174 59.55718994 25.75630188 C60.66487747 28.92930822 61.77065938 32.10296547 62.8754921 35.27696609 C64.74228709 40.63825787 66.61335687 45.9980608 68.48415184 51.35795784 C68.96478878 52.73508483 69.44532949 54.11224541 69.92577553 55.48943901 C73.23691292 64.97980389 76.5698823 74.4621667 79.92677498 83.93644333 C80.60167512 85.84154609 81.27597273 87.74686097 81.95005798 89.6522522 C84.50952769 96.88672799 84.50952769 96.88672799 87.07791138 104.11804199 C88.25003393 107.41189962 89.41657965 110.70768356 90.58203125 114.00390625 C90.9309845 114.97918777 91.27993774 115.9544693 91.63946533 116.95930481 C92.1095401 118.29344673 92.1095401 118.29344673 92.58911133 119.65454102 C92.86330399 120.42621109 93.13749664 121.19788116 93.41999817 121.99293518 C94 124 94 124 94 127 C94.66 127 95.32 127 96 127 C96.1554277 126.38947784 96.31085541 125.77895569 96.47099304 125.14993286 C98.69382522 116.69538511 101.45643525 108.45009415 104.26953125 100.1796875 C104.78845389 98.64629642 105.30709875 97.11281131 105.82548523 95.57923889 C107.20104169 91.5126276 108.58061899 87.44739195 109.96121216 83.38248825 C111.38367399 79.19259364 112.80291205 75.00160709 114.22265625 70.81079102 C116.7243937 63.42805254 119.22969295 56.0465287 121.73674965 48.66559505 C123.71560211 42.83918875 125.69046699 37.01144267 127.66398621 31.18322754 C128.98115858 27.29516339 130.3009797 23.40800453 131.62216187 19.52130127 C132.20507593 17.80557028 132.78713454 16.08954841 133.36831665 14.37322998 C134.14891729 12.06944276 134.93319938 9.76694691 135.71875 7.46484375 C136.14091797 6.223396 136.56308594 4.98194824 136.99804688 3.70288086 C138 1 138 1 139 0 C140.56547048 -0.09326716 142.13512772 -0.11745582 143.70336914 -0.11352539 C144.70433121 -0.11344986 145.70529327 -0.11337433 146.73658752 -0.11329651 C147.8251152 -0.10813522 148.91364288 -0.10297394 150.03515625 -0.09765625 C151.6977372 -0.09553383 151.6977372 -0.09553383 153.39390564 -0.09336853 C156.95013069 -0.08775033 160.50629383 -0.07519475 164.0625 -0.0625 C166.46679597 -0.05748734 168.87109292 -0.05292403 171.27539062 -0.04882812 C177.18361504 -0.03777499 183.0918031 -0.02101917 189 0 C189.7693041 4.95970917 190.25316831 9.87942325 190.53785706 14.89151001 C190.58363056 15.65602647 190.62940406 16.42054293 190.67656463 17.20822656 C190.82826257 19.75405815 190.9757841 22.30011381 191.12329102 24.84619141 C191.23157055 26.67833864 191.34009746 28.51047127 191.44885254 30.34259033 C191.74289419 35.30967133 192.03319525 40.27696432 192.32261395 45.24431658 C192.56501798 49.39898246 192.80923829 53.55354078 193.053451 57.70810068 C193.63002084 67.5173221 194.20355013 77.32671807 194.77514648 87.13623047 C195.3635432 97.23322245 195.95683474 107.32991822 196.55259758 117.42647803 C197.06493313 126.11193971 197.57430302 134.79757186 198.08130783 143.48334634 C198.38368899 148.66320743 198.68714204 153.84299974 198.99341011 159.0226326 C199.28164474 163.89962117 199.56614569 168.77681403 199.8478775 173.65418243 C199.95137618 175.43551843 200.05614174 177.21678138 200.16232872 178.99795914 C200.30813712 181.44731077 200.44916951 183.89689611 200.58912659 186.34658813 C200.6312449 187.03544464 200.67336321 187.72430114 200.71675783 188.43403208 C201.08172132 194.98240062 201 201.4030164 201 208 C184.83 208 168.66 208 152 208 C151.72285156 203.30265625 151.44570313 198.6053125 151.16015625 193.765625 C150.9825801 190.76691752 150.80491843 187.76821559 150.62695312 184.76953125 C150.34528417 180.02332312 150.06390996 175.27709895 149.78442383 170.53076172 C149.55875276 166.69867237 149.33164917 162.86667022 149.10360527 159.03472137 C149.01740278 157.58213999 148.93169257 156.12952929 148.84651375 154.67688751 C148.34364649 146.10734457 147.76290615 137.55085651 147 129 C146.64397705 130.07854248 146.2879541 131.15708496 145.92114258 132.26831055 C137.54775619 157.61201429 128.91467529 182.8408053 120 208 C103.83 208 87.66 208 71 208 C67.75327658 200.2078638 64.70672636 192.56996631 62.0390625 184.59375 C61.68540619 183.5483606 61.33174988 182.50297119 60.96737671 181.42590332 C59.84928512 178.11859166 58.7368681 174.80940847 57.625 171.5 C56.16054902 167.15567713 54.69379131 162.81213539 53.2265625 158.46875 C52.87217102 157.41840576 52.51777954 156.36806152 52.15264893 155.28588867 C48.84393964 145.49726708 45.43968401 135.74326396 42 126 C40.41740345 144.15329442 39.10804425 162.31997741 37.875 180.5 C37.69177065 183.18492079 37.50801579 185.86980552 37.32421875 188.5546875 C36.88065487 195.03631459 36.44038932 201.51815338 36 208 C19.83 208 3.66 208 -13 208 C-13 201.46858532 -12.98189196 195.09125565 -12.55116272 188.60055542 C-12.50286566 187.829799 -12.45456859 187.05904257 -12.40480798 186.26492989 C-12.24460759 183.72180858 -12.07948043 181.1790332 -11.91430664 178.63623047 C-11.79741061 176.79703604 -11.68081633 174.95782242 -11.5644989 173.11859131 C-11.24946924 168.15164584 -10.93008899 163.18498902 -10.60978246 158.2183814 C-10.27432642 153.00707063 -9.94252462 147.79552703 -9.61021423 142.58401489 C-9.05188153 133.83661583 -8.49079833 125.08939659 -7.92797852 116.34228516 C-7.2782008 106.24331445 -6.63237711 96.14409699 -5.9887591 86.04473197 C-5.36821133 76.30828797 -4.74524963 66.57199998 -4.12106133 56.83578873 C-3.85601828 52.70129996 -3.59174375 48.56676315 -3.32808113 44.43218613 C-3.01733266 39.56140052 -2.70444226 34.69075697 -2.389925 29.82021332 C-2.27512221 28.0373178 -2.16102796 26.25437649 -2.04771042 24.47138596 C-1.89237818 22.0292853 -1.73441874 19.58736775 -1.57582092 17.14547729 C-1.53204238 16.44769791 -1.48826385 15.74991852 -1.44315869 15.0309943 C-1.11155499 9.98774947 -0.55973791 5.03764123 0 0 Z " fill="#9AB6A9" transform="translate(457,52)"/>
<path d="M0 0 C11.19153777 9.32342504 19.31928804 24.37928738 21.05078125 38.9375 C21.05078125 41.9075 21.05078125 44.8775 21.05078125 47.9375 C4.88078125 47.9375 -11.28921875 47.9375 -27.94921875 47.9375 C-28.60921875 45.6275 -29.26921875 43.3175 -29.94921875 40.9375 C-32.79012461 37.76933293 -36.33020536 36.22145004 -40.48828125 35.4921875 C-44.82004903 35.29588382 -47.50301178 35.7223645 -51.44921875 37.625 C-54.14378068 40.11746978 -55.2010017 41.36268519 -55.94921875 44.9375 C-55.85773359 49.96918353 -54.73730569 52.7588015 -51.43237305 56.54370117 C-49.03549662 58.79617319 -46.4519424 59.74823064 -43.38671875 60.875 C-42.74541016 61.11750488 -42.10410156 61.36000977 -41.44335938 61.60986328 C-37.67178307 63.01750136 -33.8631488 64.30928018 -30.046875 65.58984375 C-7.15526189 73.29093251 10.0110166 82.82570564 21.80078125 104.875 C25.58310835 112.81291016 27.5448623 121.17877824 28.05078125 129.9375 C28.09203125 130.63101563 28.13328125 131.32453125 28.17578125 132.0390625 C28.74773592 151.70000415 21.08695917 169.24411611 7.75 183.3984375 C3.56777029 187.33251755 -0.928393 190.18947603 -5.94921875 192.9375 C-6.91988281 193.48277344 -7.89054687 194.02804688 -8.890625 194.58984375 C-24.49803773 202.91244063 -43.10212357 204.60707783 -60.44921875 200.9375 C-70.68731066 197.73148008 -80.94194419 192.53320137 -88.95703125 185.3828125 C-90.96594967 183.76938927 -90.96594967 183.76938927 -93.81640625 183.00390625 C-101.54227369 180.37402868 -108.43310624 174.01396841 -113.4140625 167.66796875 C-115.300037 165.54204839 -117.38703266 163.92317331 -119.63671875 162.1875 C-123.55281615 159.15473284 -127.11157922 155.90923885 -130.57421875 152.375 C-137.84030495 144.32007063 -137.84030495 144.32007063 -146.94921875 138.9375 C-147.72265625 140.1440625 -147.72265625 140.1440625 -148.51171875 141.375 C-151.58127632 144.60197078 -153.59790334 144.68646257 -157.94921875 144.9375 C-160.2984901 139.20685064 -160.56984053 133.48060432 -161.01171875 127.375 C-161.1667174 125.33183594 -161.32418421 123.28885729 -161.484375 121.24609375 C-161.55019775 120.34689209 -161.61602051 119.44769043 -161.68383789 118.52124023 C-161.94852772 115.94422787 -162.43010775 113.47352884 -162.94921875 110.9375 C-162.96766944 109.41663589 -162.94586594 107.89482554 -162.88671875 106.375 C-162.7940656 101.2327499 -163.68836888 96.5110196 -164.8046875 91.50390625 C-164.94921875 88.9375 -164.94921875 88.9375 -163.8840332 87.29077148 C-160.97521377 85.25624958 -158.65729693 85.63354548 -155.13671875 85.71875 C-154.09306152 85.73766296 -154.09306152 85.73766296 -153.02832031 85.75695801 C-151.4938279 85.78698869 -149.95946498 85.82425881 -148.42529297 85.86767578 C-145.85137359 85.94025919 -143.27758612 85.99343266 -140.703125 86.04296875 C-135.11795396 86.15482197 -129.53367493 86.29487333 -123.94921875 86.4375 C-121.99870237 86.48585723 -120.04818155 86.5340354 -118.09765625 86.58203125 C-113.38145675 86.69846294 -108.66532354 86.81729559 -103.94921875 86.9375 C-103.94921875 90.54323896 -104.76629337 91.35086566 -106.94921875 94.125 C-107.50609375 94.84042969 -108.06296875 95.55585938 -108.63671875 96.29296875 C-109.06984375 96.83566406 -109.50296875 97.37835938 -109.94921875 97.9375 C-109.29953125 98.39640625 -108.64984375 98.8553125 -107.98046875 99.328125 C-107.14515625 99.94171875 -106.30984375 100.5553125 -105.44921875 101.1875 C-104.61390625 101.79078125 -103.77859375 102.3940625 -102.91796875 103.015625 C-101.9434375 103.96695313 -101.9434375 103.96695313 -100.94921875 104.9375 C-100.94921875 108.9375 -100.94921875 108.9375 -101.94921875 110.9375 C-101.46163086 111.29811523 -100.97404297 111.65873047 -100.47167969 112.03027344 C-95.62039559 115.64026108 -90.8808926 119.36084152 -86.19921875 123.1875 C-85.50602539 123.75178711 -84.81283203 124.31607422 -84.09863281 124.89746094 C-79.93548448 128.29285485 -75.80842144 131.72711879 -71.69921875 135.1875 C-65.94552942 140.0058218 -59.99025464 144.48860459 -53.94921875 148.9375 C-53.26085938 149.49824219 -52.5725 150.05898437 -51.86328125 150.63671875 C-47.8148318 153.38801195 -43.05553513 153.29224802 -38.3515625 152.5 C-32.76388766 151.01669567 -28.90125424 149.17870881 -24.94921875 144.9375 C-22.28328356 140.13881665 -21.36394628 136.40004307 -21.94921875 130.9375 C-22.78479727 128.48646967 -23.82192619 126.28226851 -24.94921875 123.9375 C-25.27921875 122.9475 -25.60921875 121.9575 -25.94921875 120.9375 C-28.24432465 119.81567307 -28.24432465 119.81567307 -30.94921875 118.9375 C-32.14224609 118.42123047 -32.14224609 118.42123047 -33.359375 117.89453125 C-38.91872957 115.4955756 -44.49272882 113.38075582 -50.22680664 111.44238281 C-70.2092464 104.67325856 -88.77772201 95.73349278 -98.76171875 76.0625 C-106.24415378 60.53432457 -108.24884718 43.30514177 -102.91015625 26.70703125 C-97.4156829 12.72271037 -88.68221418 1.87785281 -75.94921875 -6.0625 C-75.03076172 -6.64837891 -75.03076172 -6.64837891 -74.09375 -7.24609375 C-50.71751609 -20.50810725 -21.0626859 -14.72993133 0 0 Z M-109.94921875 101.9375 C-109.94921875 102.5975 -109.94921875 103.2575 -109.94921875 103.9375 C-108.95921875 103.6075 -107.96921875 103.2775 -106.94921875 102.9375 C-107.93921875 102.6075 -108.92921875 102.2775 -109.94921875 101.9375 Z " fill="#ECADAD" transform="translate(1355.94921875,60.0625)"/>
<path d="M0 0 C0.65597168 0.46825195 1.31194336 0.93650391 1.98779297 1.41894531 C6.53979505 4.67588249 11.07046591 7.96157169 15.59619141 11.25488281 C18.05295932 13.03844741 20.5156921 14.81345964 22.98046875 16.5859375 C23.78983887 17.16835205 24.59920898 17.7507666 25.43310547 18.35083008 C26.97973903 19.46343504 28.52691017 20.57529323 30.07470703 21.6862793 C31.13020752 22.44678589 31.13020752 22.44678589 32.20703125 23.22265625 C32.86654785 23.69590332 33.52606445 24.16915039 34.20556641 24.65673828 C35.78479183 25.83890131 37.2816744 27.12939625 38.76171875 28.43359375 C40.8370386 30.2103928 40.8370386 30.2103928 43.140625 29.97265625 C45.41511826 28.7828478 46.34965479 27.5769163 47.75 25.4375 C48.17796875 24.79683594 48.6059375 24.15617187 49.046875 23.49609375 C49.36140625 23.00238281 49.6759375 22.50867188 50 22 C51.32 22.33 52.64 22.66 54 23 C55.59737103 30.18722185 57.18084387 37.37740331 58.75463867 44.56982422 C59.29179587 47.01681956 59.83214443 49.4631166 60.37573242 51.90869141 C61.15600934 55.42171897 61.92481775 58.93708855 62.69140625 62.453125 C62.93717911 63.5480426 63.18295197 64.64296021 63.43617249 65.77105713 C63.76662819 67.30219147 63.76662819 67.30219147 64.10375977 68.86425781 C64.40021141 70.20994843 64.40021141 70.20994843 64.70265198 71.58282471 C65.00635203 74.05163636 64.77585462 75.65712729 64 78 C59.10572399 79.15148252 54.16532133 79.48536169 49.16796875 79.90234375 C47.21547671 80.07205776 45.26300332 80.24198637 43.31054688 80.41210938 C40.24980691 80.67573372 37.18893121 80.93737952 34.12768555 81.19506836 C31.16142291 81.44594391 28.1959468 81.7048795 25.23046875 81.96484375 C24.32499802 82.03887924 23.41952728 82.11291473 22.48661804 82.18919373 C17.13404221 82.6642914 12.17900363 83.55860785 7 85 C8.41167747 79.73829306 10.74850232 76.27828642 14 72 C13.34 71.01 12.68 70.02 12 69 C12.99 69 13.98 69 15 69 C13.92069214 68.33581055 13.92069214 68.33581055 12.81958008 67.65820312 C-0.61523437 59.390625 -0.61523437 59.390625 -2.32653809 58.3374176 C-3.47542943 57.63047275 -4.62443755 56.92371765 -5.77355957 56.21714783 C-8.70726814 54.41293972 -11.63880103 52.60535738 -14.56640625 50.79125977 C-15.14489822 50.43346436 -15.7233902 50.07566895 -16.31941223 49.70703125 C-17.91106254 48.72242303 -19.50182612 47.73638179 -21.0925293 46.75024414 C-24.76428479 44.53991455 -28.52033645 42.52118685 -32.30859375 40.51953125 C-35.22333411 38.87390861 -37.92857157 37.0186799 -40.6875 35.125 C-45.55717912 31.99647396 -48.27181986 30.93203421 -54 32 C-57.44585933 33.72292966 -59.40248927 35.03878709 -61.4375 38.3125 C-62.19834653 41.94765566 -61.94734195 44.4001006 -61 48 C-57.61132861 52.79342972 -55.05254811 54.87342086 -49.4375 56.9375 C-48.79619141 57.18000488 -48.15488281 57.42250977 -47.49414062 57.67236328 C-43.72256432 59.08000136 -39.91393005 60.37178018 -36.09765625 61.65234375 C-13.20604314 69.35343251 3.96023535 78.88820564 15.75 100.9375 C19.5323271 108.87541016 21.49408105 117.24127824 22 126 C22.04125 126.69351563 22.0825 127.38703125 22.125 128.1015625 C22.69695467 147.76250415 15.03617792 165.30661611 1.69921875 179.4609375 C-2.48301096 183.39501755 -6.97917425 186.25197603 -12 189 C-12.97066406 189.54527344 -13.94132812 190.09054687 -14.94140625 190.65234375 C-30.54881898 198.97494063 -49.15290482 200.66957783 -66.5 197 C-77.54290958 193.54195446 -88.41822985 187.75935051 -97 180 C-97.598125 179.48179687 -98.19625 178.96359375 -98.8125 178.4296875 C-109.90526053 168.17878826 -116.70512123 153.81239932 -119 139 C-119 135.04 -119 131.08 -119 127 C-103.16 127 -87.32 127 -71 127 C-70.01 130.63 -69.02 134.26 -68 138 C-64.47419117 143.38665238 -60.11265355 146.88184838 -53.90234375 148.5703125 C-47.21292405 149.67931682 -41.00978095 148.30815122 -35.140625 144.9296875 C-31.17704309 141.96681192 -29.44292678 138.64943075 -28 134 C-27.39589143 128.36165333 -28.61164422 124.96778002 -31 120 C-31.33 119.01 -31.66 118.02 -32 117 C-34.2951059 115.87817307 -34.2951059 115.87817307 -37 115 C-38.19302734 114.48373047 -38.19302734 114.48373047 -39.41015625 113.95703125 C-44.96951082 111.5580756 -50.54351007 109.44325582 -56.27758789 107.50488281 C-76.26002765 100.73575856 -94.82850326 91.79599278 -104.8125 72.125 C-112.29493503 56.59682457 -114.29962843 39.36764177 -108.9609375 22.76953125 C-103.46646415 8.78521037 -94.73299543 -2.05964719 -82 -10 C-81.08154297 -10.58587891 -81.08154297 -10.58587891 -80.14453125 -11.18359375 C-53.69538601 -26.18895871 -22.93698136 -16.4230587 0 0 Z " fill="#9AB6A9" transform="translate(1123,66)"/>
<path d="M0 0 C15.51 0 31.02 0 47 0 C48.80017578 5.58228516 48.80017578 5.58228516 50.63671875 11.27734375 C52.32021811 16.49742628 54.00382919 21.71747277 55.6875 26.9375 C55.91001434 27.62738007 56.13252869 28.31726013 56.36178589 29.02804565 C62.9699825 49.51568514 69.58337162 70.00164002 76.20278931 90.48565674 C79.91070077 101.95998355 83.6177188 113.43459907 87.32458496 124.90926361 C88.01162031 127.03597048 88.69868081 129.16266922 89.38574219 131.28936768 C91.93021942 139.16561124 94.47409067 147.04204998 97.01668549 154.91890144 C98.10327532 158.28508636 99.19009547 161.6511964 100.27758789 165.01708984 C102.54333801 172.03027381 104.80519255 179.04468334 107.05712891 186.06231689 C107.65990848 187.94038418 108.2636549 189.81814161 108.86865234 191.69549561 C109.60443739 193.98178921 110.33467012 196.26975766 111.0625 198.55859375 C111.44535156 199.75669678 111.82820312 200.9547998 112.22265625 202.18920898 C113 205 113 205 113 208 C96.17 208 79.34 208 62 208 C54 185 54 185 54 183 C32.88 183.33 11.76 183.66 -10 184 C-12.64 191.92 -15.28 199.84 -18 208 C-35.16 208 -52.32 208 -70 208 C-67.750328 199.00131199 -67.750328 199.00131199 -66.67822266 195.89941406 C-66.43632202 195.19388397 -66.19442139 194.48835388 -65.94519043 193.76144409 C-65.68741821 193.02032379 -65.429646 192.27920349 -65.1640625 191.515625 C-64.75154236 190.31560349 -64.75154236 190.31560349 -64.33068848 189.09133911 C-63.73976149 187.3729791 -63.1474151 185.65510666 -62.55377197 183.93768311 C-60.95549116 179.31257332 -59.36862105 174.6835507 -57.78125 170.0546875 C-57.45891388 169.11537384 -57.13657776 168.17606018 -56.80447388 167.20828247 C-53.85924519 158.6142973 -50.98330207 149.99820411 -48.125 141.375 C-41.89710651 122.60670284 -35.51627951 103.89112754 -29.12982178 85.17630005 C-26.67330287 77.97709642 -24.22197222 70.77614154 -21.7734375 63.57421875 C-14.56232804 42.36640626 -7.32344146 21.16932298 0 0 Z M22 88 C19.85735053 94.20914783 17.72183723 100.42071603 15.59130859 106.6340332 C14.86541897 108.74820702 14.13788698 110.86181767 13.40869141 112.97485352 C12.36190198 116.00911866 11.32100196 119.04534852 10.28125 122.08203125 C9.78908997 123.5024749 9.78908997 123.5024749 9.2869873 124.95161438 C8.83652039 126.27264412 8.83652039 126.27264412 8.37695312 127.62036133 C8.11047974 128.39535477 7.84400635 129.17034821 7.56945801 129.96882629 C6.86502473 132.12985539 6.86502473 132.12985539 7 135 C17.23 135 27.46 135 38 135 C36.69197198 128.45985992 35.34899722 122.4382461 33.25 116.18359375 C32.9912207 115.40105728 32.73244141 114.61852081 32.46582031 113.81227112 C31.92421176 112.18041198 31.37959275 110.54954904 30.83203125 108.91967773 C29.99251768 106.41517818 29.16769336 103.90614361 28.34375 101.39648438 C27.81337081 99.80439714 27.28215185 98.21258936 26.75 96.62109375 C26.50411133 95.87016953 26.25822266 95.1192453 26.00488281 94.3455658 C24.93489618 90.4448318 24.93489618 90.4448318 22 88 Z " fill="#9AB6A9" transform="translate(322,52)"/>
<path d="M0 0 C15.51 0 31.02 0 47 0 C48.80017578 5.58228516 48.80017578 5.58228516 50.63671875 11.27734375 C52.32021811 16.49742628 54.00382919 21.71747277 55.6875 26.9375 C55.91001434 27.62738007 56.13252869 28.31726013 56.36178589 29.02804565 C62.9699825 49.51568514 69.58337162 70.00164002 76.20278931 90.48565674 C79.91070077 101.95998355 83.6177188 113.43459907 87.32458496 124.90926361 C88.01162031 127.03597048 88.69868081 129.16266922 89.38574219 131.28936768 C91.93021942 139.16561124 94.47409067 147.04204998 97.01668549 154.91890144 C98.10327532 158.28508636 99.19009547 161.6511964 100.27758789 165.01708984 C102.54333801 172.03027381 104.80519255 179.04468334 107.05712891 186.06231689 C107.65990848 187.94038418 108.2636549 189.81814161 108.86865234 191.69549561 C109.60443739 193.98178921 110.33467012 196.26975766 111.0625 198.55859375 C111.44535156 199.75669678 111.82820313 200.9547998 112.22265625 202.18920898 C113 205 113 205 113 208 C96.17 208 79.34 208 62 208 C54 185 54 185 54 183 C32.88 183.33 11.76 183.66 -10 184 C-12.64 191.92 -15.28 199.84 -18 208 C-35.16 208 -52.32 208 -70 208 C-67.750328 199.00131199 -67.750328 199.00131199 -66.67822266 195.89941406 C-66.43632202 195.19388397 -66.19442139 194.48835388 -65.94519043 193.76144409 C-65.68741821 193.02032379 -65.429646 192.27920349 -65.1640625 191.515625 C-64.75154236 190.31560349 -64.75154236 190.31560349 -64.33068848 189.09133911 C-63.73976149 187.3729791 -63.1474151 185.65510666 -62.55377197 183.93768311 C-60.95549116 179.31257332 -59.36862105 174.6835507 -57.78125 170.0546875 C-57.45891388 169.11537384 -57.13657776 168.17606018 -56.80447388 167.20828247 C-53.85924519 158.6142973 -50.98330207 149.99820411 -48.125 141.375 C-41.89710651 122.60670284 -35.51627951 103.89112754 -29.12982178 85.17630005 C-26.67330287 77.97709642 -24.22197222 70.77614154 -21.7734375 63.57421875 C-14.56232804 42.36640626 -7.32344146 21.16932298 0 0 Z M22 88 C19.85735053 94.20914783 17.72183723 100.42071603 15.59130859 106.6340332 C14.86541897 108.74820702 14.13788698 110.86181767 13.40869141 112.97485352 C12.36190198 116.00911866 11.32100196 119.04534852 10.28125 122.08203125 C9.78908997 123.5024749 9.78908997 123.5024749 9.2869873 124.95161438 C8.83652039 126.27264412 8.83652039 126.27264412 8.37695312 127.62036133 C8.11047974 128.39535477 7.84400635 129.17034821 7.56945801 129.96882629 C6.86502473 132.12985539 6.86502473 132.12985539 7 135 C17.23 135 27.46 135 38 135 C36.69197198 128.45985992 35.34899722 122.4382461 33.25 116.18359375 C32.9912207 115.40105728 32.73244141 114.61852081 32.46582031 113.81227112 C31.92421176 112.18041198 31.37959275 110.54954904 30.83203125 108.91967773 C29.99251768 106.41517818 29.16769336 103.90614361 28.34375 101.39648438 C27.81337081 99.80439714 27.28215185 98.21258936 26.75 96.62109375 C26.50411133 95.87016953 26.25822266 95.1192453 26.00488281 94.3455658 C24.93489618 90.4448318 24.93489618 90.4448318 22 88 Z " fill="#ECADAD" transform="translate(1695,50)"/>
<path d="M0 0 C15.84 0 31.68 0 48 0 C48.01458252 3.90553711 48.02916504 7.81107422 48.04418945 11.83496094 C48.09460786 24.76308521 48.16106754 37.69108574 48.23571491 50.61909103 C48.28056837 58.45454305 48.32000675 66.28995067 48.34643555 74.12548828 C48.36950068 80.95961727 48.4029927 87.79360454 48.44870156 94.62762094 C48.47251976 98.24195938 48.49132281 101.85615846 48.49761391 105.47057343 C48.50485498 109.51801821 48.5353879 113.5649817 48.56762695 117.61230469 C48.56619186 118.79410812 48.56475677 119.97591156 48.5632782 121.19352722 C48.69579043 133.01729007 50.26401214 143.45658903 59 152 C65.65971944 157.53394202 72.88101254 159.3351959 81.4375 158.9375 C89.18592199 157.98384806 95.47795088 154.98514311 100.875 149.3125 C107.56300803 140.63747509 108.58988137 132.19515394 108.54589844 121.47216797 C108.56140495 119.49487953 108.56140495 119.49487953 108.57722473 117.47764587 C108.60489154 113.89355654 108.60849375 110.3098137 108.60750484 106.72563314 C108.61065073 102.9686329 108.63630351 99.21178492 108.65948486 95.4548645 C108.69992084 88.35429801 108.72035624 81.25382307 108.73345876 74.15315926 C108.74937104 66.06351949 108.78780426 57.97403459 108.82805204 49.88448501 C108.91028118 33.25634578 108.96150701 16.62830674 109 0 C125.17 0 141.34 0 158 0 C158.067922 17.73391086 158.12310053 35.46770937 158.15543652 53.20171452 C158.17085487 61.43733973 158.19184719 69.67287793 158.22631836 77.90844727 C158.25637584 85.09300708 158.27561149 92.27750382 158.28226548 99.46212476 C158.28615029 103.26049996 158.29517285 107.05869484 158.31719017 110.8570118 C158.33781487 114.44473571 158.34378244 118.032208 158.33932304 121.61998558 C158.34051976 123.53870256 158.35652405 125.45739324 158.3732605 127.3760376 C158.29527182 149.72450847 150.46405002 169.72082686 135 186 C116.90462444 202.41717541 95.94599585 209.11300463 71.71484375 208.375 C55.05976126 207.50086085 38.36502031 200.23216269 26 189 C25.26652344 188.35804688 24.53304687 187.71609375 23.77734375 187.0546875 C10.16356944 174.39831413 1.1835005 156.11678413 -0.26842308 137.57144737 C-0.36551358 133.9043795 -0.37168746 130.24902293 -0.34057617 126.58081055 C-0.33972742 125.18974832 -0.34020987 123.79868475 -0.34190369 122.40762329 C-0.3427554 118.67491965 -0.32526531 114.94251228 -0.30418181 111.20987678 C-0.28527562 107.29283177 -0.28365369 103.37577805 -0.28010559 99.45869446 C-0.27082569 92.06066717 -0.24626759 84.66277478 -0.21605712 77.26480657 C-0.1823859 68.83421303 -0.1659953 60.40361263 -0.15097082 51.97296846 C-0.11971379 34.64855449 -0.06475328 17.32432607 0 0 Z " fill="#9AB6A9" transform="translate(827,52)"/>
<path d="M0 0 C81.73267327 0 81.73267327 0 109.4921875 26.3671875 C123.18668887 40.81986196 132.86233848 59.92362018 134 80 C134.06445312 81.1034375 134.12890625 82.206875 134.1953125 83.34375 C134.95098385 108.53279487 126.67293324 129.56003125 110.3125 148.6875 C98.62448216 161.07896336 83.73400942 169.38517334 67.25 173.4375 C66.58959717 173.60169434 65.92919434 173.76588867 65.2487793 173.93505859 C59.23346079 175.2576437 54.48960021 175 48 175 C48 185.89 48 196.78 48 208 C32.16 208 16.32 208 0 208 C0 139.36 0 70.72 0 0 Z M48 49 C48 74.74 48 100.48 48 127 C60.0620176 124.58759648 70.41991703 121.16305111 78 111 C84.29573512 100.28209644 87.03729177 90.46236119 84.3515625 77.98828125 C80.62877628 66.83583193 74.23185997 58.78462635 64 53 C58.51965217 50.28487338 54.31451873 49.78931484 48 49 Z " fill="#9AB6A9" transform="translate(685,52)"/>
<path d="M0 0 C81.73267327 0 81.73267327 0 109.4921875 26.3671875 C123.18668887 40.81986196 132.86233848 59.92362018 134 80 C134.06445312 81.1034375 134.12890625 82.206875 134.1953125 83.34375 C134.95098385 108.53279487 126.67293324 129.56003125 110.3125 148.6875 C98.62448216 161.07896336 83.73400942 169.38517334 67.25 173.4375 C66.58959717 173.60169434 65.92919434 173.76588867 65.2487793 173.93505859 C59.23346079 175.2576437 54.48960021 175 48 175 C48 185.89 48 196.78 48 208 C32.16 208 16.32 208 0 208 C0 139.36 0 70.72 0 0 Z M48 49 C48 74.74 48 100.48 48 127 C60.0620176 124.58759648 70.41991703 121.16305111 78 111 C84.29573512 100.28209644 87.03729177 90.46236119 84.3515625 77.98828125 C80.62877628 66.83583193 74.23185997 58.78462635 64 53 C58.51965217 50.28487338 54.31451873 49.78931484 48 49 Z " fill="#ECADAD" transform="translate(1831,50)"/>
<path d="M0 0 C4.16072569 3.35169569 8.09278793 6.8075015 11.828125 10.62890625 C10.49818117 13.58155737 9.05033184 15.65240841 6.75537109 17.92871094 C6.13487885 18.54905212 5.5143866 19.16939331 4.87509155 19.80853271 C4.20732697 20.46597473 3.53956238 21.12341675 2.8515625 21.80078125 C2.166315 22.48319885 1.4810675 23.16561646 0.77505493 23.86871338 C-1.41093345 26.04352223 -3.60377929 28.21126697 -5.796875 30.37890625 C-7.28170755 31.85370615 -8.76608806 33.32896131 -10.25 34.8046875 C-13.8854041 38.41806073 -17.52697324 42.02511478 -21.171875 45.62890625 C-24.04246232 44.23528001 -26.42506871 42.74516085 -28.921875 40.75390625 C-40.7954541 31.75014055 -54.98086439 28.35859442 -69.734375 30.31640625 C-85.95003445 33.25767145 -97.51251342 41.05252134 -107.46484375 54.10546875 C-115.91156645 66.59192839 -117.94754124 80.96024236 -115.70703125 95.68359375 C-112.24464714 109.8199549 -104.26610699 121.91717693 -92.33984375 130.3203125 C-78.89147739 138.4377949 -63.34222052 141.4412722 -47.91796875 137.75390625 C-38.81279798 134.9149607 -29.7731492 130.70170003 -23.171875 123.62890625 C-20.24198895 124.9534562 -18.15146846 126.39403723 -15.87207031 128.65405273 C-14.94155853 129.57026649 -14.94155853 129.57026649 -13.99224854 130.50498962 C-13.33480652 131.16334305 -12.6773645 131.82169647 -12 132.5 C-11.3175824 133.17813248 -10.63516479 133.85626495 -9.93206787 134.5549469 C-8.49399469 135.98728533 -7.05852405 137.42224084 -5.62548828 138.85961914 C-3.42475934 141.06351776 -1.21102089 143.25374148 1.00390625 145.44335938 C2.39924755 146.83642869 3.79380624 148.23028241 5.1875 149.625 C5.85303894 150.28132919 6.51857788 150.93765839 7.20428467 151.61387634 C7.81201721 152.22783768 8.41974976 152.84179901 9.04589844 153.47436523 C9.58454529 154.01238266 10.12319214 154.55040009 10.67816162 155.10472107 C11.828125 156.62890625 11.828125 156.62890625 11.828125 159.62890625 C-6.78926106 178.55024963 -33.19871805 188.41263294 -59.36523438 189.04833984 C-69.63986265 189.10785162 -79.24404115 188.42993332 -89.171875 185.62890625 C-90.39777344 185.28859375 -91.62367188 184.94828125 -92.88671875 184.59765625 C-108.30754995 179.88706179 -121.02160845 172.12948603 -133.171875 161.62890625 C-134.31076172 160.64470703 -134.31076172 160.64470703 -135.47265625 159.640625 C-154.5297692 141.80561148 -164.98183711 115.30459634 -166.390625 89.64453125 C-167.27030799 61.35857356 -158.28776379 34.70806936 -139.13671875 13.74609375 C-103.46746501 -24.13458498 -42.37460273 -31.67658111 0 0 Z " fill="#9AB6A9" transform="translate(234.171875,71.37109375)"/>
<path d="M0 0 C2.49361571 1.20381448 4.68143083 2.45428722 7 4 C7 5.32 7 6.64 7 8 C5.33333333 8 3.66666667 8 2 8 C1.01 5.69 0.02 3.38 -1 1 C-0.67 0.67 -0.34 0.34 0 0 Z " fill="#8B9892" transform="translate(1248,161)"/>
<path d="M0 0 C4.875 1.75 4.875 1.75 6 4 C1.125 2.25 1.125 2.25 0 0 Z " fill="#98A5A0" transform="translate(1127,133)"/>
<path d="M0 0 C2 1 2 1 2 1 Z " fill="#CED8CE" transform="translate(1133,137)"/>
<path d="M0 0 C2 1 2 1 2 1 Z " fill="#73CC8C" transform="translate(1130,132)"/>
<path d="M0 0 C2 1 2 1 2 1 Z " fill="#8FDFCF" transform="translate(1125,132)"/>
<path d="M0 0 C2 1 2 1 2 1 Z " fill="#808080" transform="translate(1127,130)"/>
<path d="" fill="#000000" transform="translate(0,0)"/>
<path d="" fill="#000000" transform="translate(0,0)"/>
<path d="" fill="#BFBFBF" transform="translate(0,0)"/>
<path d="" fill="#FFFFFF" transform="translate(0,0)"/>
<path d="" fill="#AAAAAA" transform="translate(0,0)"/>
<path d="" fill="#9DB1B1" transform="translate(0,0)"/>
<path d="" fill="#55AAAA" transform="translate(0,0)"/>
<path d="" fill="#808080" transform="translate(0,0)"/>
<path d="" fill="#999999" transform="translate(0,0)"/>
<path d="" fill="#808080" transform="translate(0,0)"/>
<path d="" fill="#808080" transform="translate(0,0)"/>
<path d="" fill="#FFFFFF" transform="translate(0,0)"/>
<path d="" fill="#00FFFF" transform="translate(0,0)"/>
<path d="" fill="#00FF00" transform="translate(0,0)"/>
<path d="" fill="#000000" transform="translate(0,0)"/>
<path d="" fill="#FFFFFF" transform="translate(0,0)"/>
</svg>
