<?xml version="1.0" encoding="UTF-8"?>
<svg version="1.1" xmlns="http://www.w3.org/2000/svg" width="512" height="429">
<path d="M0 0 C1.051875 0.103125 2.10375 0.20625 3.1875 0.3125 C2.8575 1.3025 2.5275 2.2925 2.1875 3.3125 C5.14668198 3.19891524 8.10426783 3.07216914 11.0625 2.9375 C11.90425781 2.9065625 12.74601562 2.875625 13.61328125 2.84375 C14.41894531 2.80507813 15.22460938 2.76640625 16.0546875 2.7265625 C16.79831543 2.6951416 17.54194336 2.6637207 18.30810547 2.63134766 C20.42760974 2.45830449 20.42760974 2.45830449 22.1875 0.3125 C25.8125 0.1875 25.8125 0.1875 29.1875 0.3125 C29.1875 0.9725 29.1875 1.6325 29.1875 2.3125 C31.95859307 2.36642397 34.72863818 2.40613455 37.5 2.4375 C38.28568359 2.45425781 39.07136719 2.47101563 39.88085938 2.48828125 C40.63818359 2.49472656 41.39550781 2.50117188 42.17578125 2.5078125 C43.22052612 2.52352295 43.22052612 2.52352295 44.28637695 2.53955078 C46.518673 2.41824595 46.518673 2.41824595 49.1875 0.3125 C51.51949388 0.23344936 53.85582622 0.22451231 56.1875 0.3125 C55.8575 1.3025 55.5275 2.2925 55.1875 3.3125 C58.14668198 3.19891524 61.10426783 3.07216914 64.0625 2.9375 C64.90425781 2.9065625 65.74601562 2.875625 66.61328125 2.84375 C67.41894531 2.80507813 68.22460938 2.76640625 69.0546875 2.7265625 C69.79831543 2.6951416 70.54194336 2.6637207 71.30810547 2.63134766 C73.42760974 2.45830449 73.42760974 2.45830449 75.1875 0.3125 C78.8125 0.1875 78.8125 0.1875 82.1875 0.3125 C81.8575 1.3025 81.5275 2.2925 81.1875 3.3125 C84.14668198 3.19891524 87.10426783 3.07216914 90.0625 2.9375 C90.90425781 2.9065625 91.74601563 2.875625 92.61328125 2.84375 C93.41894531 2.80507813 94.22460938 2.76640625 95.0546875 2.7265625 C95.79831543 2.6951416 96.54194336 2.6637207 97.30810547 2.63134766 C99.42760974 2.45830449 99.42760974 2.45830449 101.1875 0.3125 C104.8125 0.1875 104.8125 0.1875 108.1875 0.3125 C108.1875 0.9725 108.1875 1.6325 108.1875 2.3125 C110.95859307 2.36642397 113.72863818 2.40613455 116.5 2.4375 C117.28568359 2.45425781 118.07136719 2.47101563 118.88085938 2.48828125 C119.63818359 2.49472656 120.39550781 2.50117188 121.17578125 2.5078125 C122.22052612 2.52352295 122.22052612 2.52352295 123.28637695 2.53955078 C125.518673 2.41824595 125.518673 2.41824595 128.1875 0.3125 C130.51949388 0.23344936 132.85582622 0.22451231 135.1875 0.3125 C134.8575 1.3025 134.5275 2.2925 134.1875 3.3125 C137.14668198 3.19891524 140.10426783 3.07216914 143.0625 2.9375 C143.90425781 2.9065625 144.74601563 2.875625 145.61328125 2.84375 C146.41894531 2.80507813 147.22460938 2.76640625 148.0546875 2.7265625 C148.79831543 2.6951416 149.54194336 2.6637207 150.30810547 2.63134766 C152.42760974 2.45830449 152.42760974 2.45830449 154.1875 0.3125 C157.8125 0.1875 157.8125 0.1875 161.1875 0.3125 C160.8575 1.3025 160.5275 2.2925 160.1875 3.3125 C163.14668198 3.19891524 166.10426783 3.07216914 169.0625 2.9375 C169.90425781 2.9065625 170.74601563 2.875625 171.61328125 2.84375 C172.41894531 2.80507813 173.22460938 2.76640625 174.0546875 2.7265625 C174.79831543 2.6951416 175.54194336 2.6637207 176.30810547 2.63134766 C178.42760974 2.45830449 178.42760974 2.45830449 180.1875 0.3125 C183.8125 0.1875 183.8125 0.1875 187.1875 0.3125 C187.1875 0.9725 187.1875 1.6325 187.1875 2.3125 C189.95859307 2.36642397 192.72863818 2.40613455 195.5 2.4375 C196.28568359 2.45425781 197.07136719 2.47101563 197.88085938 2.48828125 C198.63818359 2.49472656 199.39550781 2.50117188 200.17578125 2.5078125 C201.22052612 2.52352295 201.22052612 2.52352295 202.28637695 2.53955078 C204.518673 2.41824595 204.518673 2.41824595 207.1875 0.3125 C209.51949388 0.23344936 211.85582622 0.22451231 214.1875 0.3125 C213.8575 1.3025 213.5275 2.2925 213.1875 3.3125 C216.14668198 3.19891524 219.10426783 3.07216914 222.0625 2.9375 C222.90425781 2.9065625 223.74601562 2.875625 224.61328125 2.84375 C225.41894531 2.80507813 226.22460938 2.76640625 227.0546875 2.7265625 C227.79831543 2.6951416 228.54194336 2.6637207 229.30810547 2.63134766 C231.42760974 2.45830449 231.42760974 2.45830449 233.1875 0.3125 C236.8125 0.1875 236.8125 0.1875 240.1875 0.3125 C240.1875 0.9725 240.1875 1.6325 240.1875 2.3125 C242.97942205 2.36630578 245.7703141 2.40607669 248.5625 2.4375 C249.3565625 2.45425781 250.150625 2.47101563 250.96875 2.48828125 C253.04242015 2.50585473 255.11633241 2.41585168 257.1875 2.3125 C257.8475 1.6525 258.5075 0.9925 259.1875 0.3125 C261.87589385 0.04258094 264.47891936 0.22512643 267.1875 0.3125 C266.8575 0.9725 266.5275 1.6325 266.1875 2.3125 C268.95859307 2.36642397 271.72863818 2.40613455 274.5 2.4375 C275.28568359 2.45425781 276.07136719 2.47101563 276.88085938 2.48828125 C277.63818359 2.49472656 278.39550781 2.50117188 279.17578125 2.5078125 C280.22052612 2.52352295 280.22052612 2.52352295 281.28637695 2.53955078 C283.518673 2.41824595 283.518673 2.41824595 286.1875 0.3125 C288.51949388 0.23344936 290.85582622 0.22451231 293.1875 0.3125 C292.8575 1.3025 292.5275 2.2925 292.1875 3.3125 C295.14668198 3.19891524 298.10426783 3.07216914 301.0625 2.9375 C301.90425781 2.9065625 302.74601562 2.875625 303.61328125 2.84375 C304.41894531 2.80507813 305.22460938 2.76640625 306.0546875 2.7265625 C306.79831543 2.6951416 307.54194336 2.6637207 308.30810547 2.63134766 C310.42760974 2.45830449 310.42760974 2.45830449 312.1875 0.3125 C315.8125 0.1875 315.8125 0.1875 319.1875 0.3125 C319.1875 0.9725 319.1875 1.6325 319.1875 2.3125 C321.97942205 2.36630578 324.7703141 2.40607669 327.5625 2.4375 C328.3565625 2.45425781 329.150625 2.47101563 329.96875 2.48828125 C332.04242015 2.50585473 334.11633241 2.41585168 336.1875 2.3125 C336.8475 1.6525 337.5075 0.9925 338.1875 0.3125 C340.87589385 0.04258094 343.47891936 0.22512643 346.1875 0.3125 C345.8575 1.3025 345.5275 2.2925 345.1875 3.3125 C347.95920395 3.19863541 350.72928046 3.07189222 353.5 2.9375 C354.28568359 2.9065625 355.07136719 2.875625 355.88085938 2.84375 C356.63818359 2.80507813 357.39550781 2.76640625 358.17578125 2.7265625 C359.22052612 2.67943115 359.22052612 2.67943115 360.28637695 2.63134766 C362.51282739 2.39131747 362.51282739 2.39131747 365.1875 0.3125 C367.51949388 0.23344936 369.85582622 0.22451231 372.1875 0.3125 C371.8575 1.3025 371.5275 2.2925 371.1875 3.3125 C374.14668198 3.19891524 377.10426783 3.07216914 380.0625 2.9375 C380.90425781 2.9065625 381.74601562 2.875625 382.61328125 2.84375 C383.41894531 2.80507813 384.22460938 2.76640625 385.0546875 2.7265625 C385.79831543 2.6951416 386.54194336 2.6637207 387.30810547 2.63134766 C389.42760974 2.45830449 389.42760974 2.45830449 391.1875 0.3125 C394.8125 0.1875 394.8125 0.1875 398.1875 0.3125 C398.1875 0.9725 398.1875 1.6325 398.1875 2.3125 C400.97942205 2.36630578 403.7703141 2.40607669 406.5625 2.4375 C407.3565625 2.45425781 408.150625 2.47101563 408.96875 2.48828125 C411.04242015 2.50585473 413.11633241 2.41585168 415.1875 2.3125 C415.8475 1.6525 416.5075 0.9925 417.1875 0.3125 C419.87589385 0.04258094 422.47891936 0.22512643 425.1875 0.3125 C424.8575 1.3025 424.5275 2.2925 424.1875 3.3125 C426.95920395 3.19863541 429.72928046 3.07189222 432.5 2.9375 C433.28568359 2.9065625 434.07136719 2.875625 434.88085938 2.84375 C435.63818359 2.80507813 436.39550781 2.76640625 437.17578125 2.7265625 C438.22052612 2.67943115 438.22052612 2.67943115 439.28637695 2.63134766 C441.51282739 2.39131747 441.51282739 2.39131747 444.1875 0.3125 C446.51949388 0.23344936 448.85582622 0.22451231 451.1875 0.3125 C449.7025 3.2825 449.7025 3.2825 448.1875 6.3125 C449.42694276 7.18191494 450.67957059 8.03255457 451.9375 8.875 C452.98164062 9.58849609 452.98164062 9.58849609 454.046875 10.31640625 C456.10954329 11.48477155 456.10954329 11.48477155 458.265625 11.17578125 C460.60451147 10.12518387 461.62077643 8.95550807 463.1875 6.9375 C465.32393007 4.31674069 467.23177283 2.04516765 470.1875 0.3125 C471.1775 0.3125 472.1675 0.3125 473.1875 0.3125 C473.49609375 2.98828125 473.49609375 2.98828125 473.1875 6.3125 C471.03515625 8.98046875 471.03515625 8.98046875 468.25 11.5 C464.38704347 14.85676122 464.38704347 14.85676122 462.1875 19.3125 C463.1775 19.6425 464.1675 19.9725 465.1875 20.3125 C466.83570195 22.91492414 467.1875 24.17498779 467.1875 27.3125 C469.1675 26.3225 471.1475 25.3325 473.1875 24.3125 C473.4375 31.9375 473.4375 31.9375 471.1875 35.3125 C471.20467912 38.09265409 471.32147861 40.74030513 471.5625 43.5 C471.61921875 44.24958984 471.6759375 44.99917969 471.734375 45.77148438 C471.87560669 47.61926559 472.03026167 49.466012 472.1875 51.3125 C472.5175 51.3125 472.8475 51.3125 473.1875 51.3125 C473.1875 53.9525 473.1875 56.5925 473.1875 59.3125 C472.5275 59.3125 471.8675 59.3125 471.1875 59.3125 C470.5275 61.2925 469.8675 63.2725 469.1875 65.3125 C468.5275 65.3125 467.8675 65.3125 467.1875 65.3125 C466.878125 66.5809375 466.878125 66.5809375 466.5625 67.875 C464.12971618 73.95695955 459.57544306 78.62601264 454.1875 82.3125 C451.875 83.0625 451.875 83.0625 450.1875 83.3125 C450.1875 83.9725 450.1875 84.6325 450.1875 85.3125 C444.82261844 88.44982956 440.40888692 89.89820172 434.12844849 89.80469131 C433.35438445 89.80930669 432.58032042 89.81392207 431.7827999 89.81867731 C429.19745902 89.82923767 426.61312124 89.81134472 424.02783203 89.79351807 C422.15239066 89.79526303 420.27695024 89.79876658 418.40151501 89.80387473 C413.25455163 89.81281311 408.10792159 89.79682656 402.96100068 89.77676249 C397.4082607 89.75948559 391.85553945 89.76533436 386.30278015 89.76837158 C376.68444365 89.77046879 367.0662157 89.75792079 357.44790649 89.73542023 C343.54147057 89.70290943 329.63508712 89.69249414 315.72861731 89.68746826 C293.16621372 89.67871418 270.60387273 89.65212986 248.04150391 89.61425781 C226.12451477 89.57751157 204.20754112 89.54918129 182.29052734 89.53222656 C181.61477223 89.53170046 180.93901711 89.53117435 180.24278456 89.53063231 C173.45648147 89.52535816 166.67017825 89.52025491 159.88387494 89.51527687 C102.98504277 89.47352314 46.08627431 89.40294773 -10.8125 89.3125 C-11.1425 88.3225 -11.4725 87.3325 -11.8125 86.3125 C-12.4725 85.9825 -13.1325 85.6525 -13.8125 85.3125 C-13.8125 84.6525 -13.8125 83.9925 -13.8125 83.3125 C-15.7925 82.6525 -17.7725 81.9925 -19.8125 81.3125 C-19.8125 80.6525 -19.8125 79.9925 -19.8125 79.3125 C-22.4525 79.6425 -25.0925 79.9725 -27.8125 80.3125 C-28.1425 79.3225 -28.4725 78.3325 -28.8125 77.3125 C-27.8225 76.8175 -27.8225 76.8175 -26.8125 76.3125 C-26.4825 75.3225 -26.1525 74.3325 -25.8125 73.3125 C-26.4725 73.3125 -27.1325 73.3125 -27.8125 73.3125 C-28.8025 70.3425 -28.8025 70.3425 -29.8125 67.3125 C-30.4725 67.3125 -31.1325 67.3125 -31.8125 67.3125 C-34.1218298 65.62325149 -34.74976569 64.61462985 -35.33666992 61.78808594 C-35.40474854 60.80098633 -35.47282715 59.81388672 -35.54296875 58.796875 C-35.66381836 57.16685547 -35.66381836 57.16685547 -35.78710938 55.50390625 C-35.85736328 54.36824219 -35.92761719 53.23257813 -36 52.0625 C-36.08185547 50.94230469 -36.16371094 49.82210937 -36.24804688 48.66796875 C-36.46705074 45.55038435 -36.64815904 42.43338274 -36.8125 39.3125 C-36.8635791 38.55775391 -36.9146582 37.80300781 -36.96728516 37.02539062 C-37.05078125 35.140625 -37.05078125 35.140625 -36.8125 32.3125 C-35.8225 31.6525 -34.8325 30.9925 -33.8125 30.3125 C-32.76023272 28.33949884 -31.76461112 26.33573613 -30.8125 24.3125 C-29.25 21.4375 -29.25 21.4375 -27.8125 19.3125 C-27.1525 19.3125 -26.4925 19.3125 -25.8125 19.3125 C-25.71839844 18.70921875 -25.62429687 18.1059375 -25.52734375 17.484375 C-24.64851348 14.81426772 -23.679428 14.11475504 -21.375 12.5625 C-20.75753906 12.13453125 -20.14007812 11.7065625 -19.50390625 11.265625 C-17.8125 10.3125 -17.8125 10.3125 -15.8125 10.3125 C-15.8125 9.6525 -15.8125 8.9925 -15.8125 8.3125 C-14.760625 7.920625 -13.70875 7.52875 -12.625 7.125 C-9.6637474 5.89065022 -8.60409391 5.08846346 -6.3125 2.625 C-3.8125 0.3125 -3.8125 0.3125 0 0 Z " fill="#95B7A8" transform="translate(38.8125,336.6875)"/>
<path d="M0 0 C1.7681937 -0.00186965 3.53638698 -0.00417097 5.30457962 -0.00686532 C10.1506095 -0.01297028 14.99662209 -0.01285128 19.84265494 -0.01167095 C25.07376606 -0.01146662 30.30487168 -0.01698862 35.53598022 -0.02172852 C45.77810739 -0.03002756 56.02022879 -0.03278299 66.26235904 -0.03334089 C74.5854077 -0.03381624 82.90845447 -0.03587189 91.23150253 -0.03904152 C114.82733267 -0.04784465 138.42315826 -0.05246122 162.01899005 -0.05171105 C163.29049647 -0.05167109 164.56200288 -0.05163113 165.87203979 -0.05158997 C167.78162595 -0.05152864 167.78162595 -0.05152864 169.7297896 -0.05146609 C190.37858179 -0.05105931 211.02735578 -0.0606377 231.67614271 -0.07472833 C252.87662538 -0.08908142 274.07709916 -0.09599916 295.27758682 -0.09513456 C307.18086572 -0.0948023 319.08412552 -0.09756196 330.98740005 -0.10831261 C341.11762781 -0.11740337 351.24782779 -0.11960445 361.37805785 -0.11280318 C366.54748725 -0.10953129 371.71686331 -0.1095055 376.88628769 -0.11815643 C381.61724221 -0.12599236 386.34810082 -0.12461988 391.07905291 -0.1158723 C392.79154895 -0.11433093 394.50405204 -0.11617733 396.21653976 -0.12173238 C398.54309236 -0.12878029 400.86930737 -0.12350851 403.19584846 -0.1151762 C404.48847418 -0.11539357 405.78109989 -0.11561094 407.11289608 -0.11583489 C410.89798374 0.14629656 414.110161 0.98474286 417.71627808 2.13371277 C423.08466222 3.18368065 426.63790415 3.37417185 431.71627808 1.13371277 C432.70627808 1.79371277 433.69627808 2.45371277 434.71627808 3.13371277 C434.71627808 3.79371277 434.71627808 4.45371277 434.71627808 5.13371277 C434.05627808 5.13371277 433.39627808 5.13371277 432.71627808 5.13371277 C432.38627808 6.45371277 432.05627808 7.77371277 431.71627808 9.13371277 C432.37627808 9.13371277 433.03627808 9.13371277 433.71627808 9.13371277 C433.71627808 9.79371277 433.71627808 10.45371277 433.71627808 11.13371277 C434.31440308 11.40183777 434.91252808 11.66996277 435.52877808 11.94621277 C437.71441382 13.13270075 438.97461978 14.39205447 440.71627808 16.13371277 C442.8161746 17.30945988 442.8161746 17.30945988 444.71627808 18.13371277 C444.71627808 20.44371277 444.71627808 22.75371277 444.71627808 25.13371277 C445.37627808 25.13371277 446.03627808 25.13371277 446.71627808 25.13371277 C447.37627808 27.77371277 448.03627808 30.41371277 448.71627808 33.13371277 C449.37627808 33.13371277 450.03627808 33.13371277 450.71627808 33.13371277 C450.81393433 39.28605652 450.81393433 39.28605652 450.71627808 41.13371277 C450.38627808 41.46371277 450.05627808 41.79371277 449.71627808 42.13371277 C449.52963953 44.15118663 449.39258015 46.1733228 449.27877808 48.19621277 C448.92153765 53.42805642 448.19325686 58.11198491 446.71627808 63.13371277 C446.05627808 63.13371277 445.39627808 63.13371277 444.71627808 63.13371277 C444.61315308 63.69058777 444.51002808 64.24746277 444.40377808 64.82121277 C442.41624757 71.50654266 436.68478293 78.50997768 430.71627808 82.13371277 C430.05627808 82.13371277 429.39627808 82.13371277 428.71627808 82.13371277 C428.38627808 82.79371277 428.05627808 83.45371277 427.71627808 84.13371277 C425.73627808 84.13371277 423.75627808 84.13371277 421.71627808 84.13371277 C421.71627808 84.79371277 421.71627808 85.45371277 421.71627808 86.13371277 C403.10748573 91.95399105 378.15701023 88.2839564 358.77425563 88.27909648 C353.63539992 88.27889039 348.49654964 88.28443041 343.35769653 88.28915405 C333.32208925 88.29741227 323.28648785 88.30020656 313.25087745 88.30076643 C305.09687153 88.30124325 296.94286754 88.30330623 288.78886223 88.30646706 C265.6462269 88.31525516 242.50359619 88.31988854 219.36095918 88.31913658 C218.11688385 88.31909663 216.87280852 88.31905667 215.59103394 88.3190155 C214.34543451 88.31897462 213.09983509 88.31893374 211.81649023 88.31889162 C191.57840966 88.31848416 171.3403476 88.32808362 151.1022724 88.34215387 C130.29804898 88.35650341 109.49383462 88.36342506 88.68960613 88.36256009 C77.01848658 88.36222796 65.34738652 88.36498311 53.67627144 88.37573814 C43.75418132 88.3848237 33.83211956 88.38703391 23.91002709 88.38022872 C18.84797689 88.3769556 13.78598116 88.37693569 8.72393608 88.38558197 C4.09281801 88.3934113 -0.53820204 88.39205234 -5.16931761 88.38329784 C-6.84644414 88.38175513 -8.52357787 88.38360783 -10.20069592 88.38915791 C-12.47697717 88.39619354 -14.75291215 88.39094385 -17.02918148 88.38260174 C-18.2944177 88.38281911 -19.55965393 88.38303647 -20.86323065 88.38326043 C-24.31843735 88.13118005 -27.06390705 87.37840757 -30.28372192 86.13371277 C-30.28372192 85.47371277 -30.28372192 84.81371277 -30.28372192 84.13371277 C-36.3363827 83.14964287 -36.3363827 83.14964287 -42.28372192 84.13371277 C-42.94372192 83.80371277 -43.60372192 83.47371277 -44.28372192 83.13371277 C-44.20122192 82.22621277 -44.11872192 81.31871277 -44.03372192 80.38371277 C-44.33720247 76.4384657 -45.39297314 75.66311796 -48.28372192 73.13371277 C-48.28372192 72.47371277 -48.28372192 71.81371277 -48.28372192 71.13371277 C-50.92372192 71.13371277 -53.56372192 71.13371277 -56.28372192 71.13371277 C-56.90872192 68.82121277 -56.90872192 68.82121277 -57.28372192 66.13371277 C-56.62372192 65.14371277 -55.96372192 64.15371277 -55.28372192 63.13371277 C-55.25622715 61.06460684 -55.25622715 61.06460684 -55.65872192 58.94621277 C-55.86497192 57.68808777 -56.07122192 56.42996277 -56.28372192 55.13371277 C-56.94372192 55.13371277 -57.60372192 55.13371277 -58.28372192 55.13371277 C-58.61372192 53.81371277 -58.94372192 52.49371277 -59.28372192 51.13371277 C-60.27372192 51.62871277 -60.27372192 51.62871277 -61.28372192 52.13371277 C-61.53372192 44.50871277 -61.53372192 44.50871277 -59.28372192 41.13371277 C-59.13934692 40.10246277 -58.99497192 39.07121277 -58.84622192 38.00871277 C-58.0944727 32.82999589 -56.630883 27.82803492 -54.28372192 23.13371277 C-53.62372192 23.13371277 -52.96372192 23.13371277 -52.28372192 23.13371277 C-52.05684692 22.24683777 -51.82997192 21.35996277 -51.59622192 20.44621277 C-50.09261994 16.65140776 -48.36866906 14.76720423 -45.28372192 12.13371277 C-44.29372192 11.80371277 -43.30372192 11.47371277 -42.28372192 11.13371277 C-42.28372192 10.47371277 -42.28372192 9.81371277 -42.28372192 9.13371277 C-40.30372192 8.47371277 -38.32372192 7.81371277 -36.28372192 7.13371277 C-36.28372192 6.47371277 -36.28372192 5.81371277 -36.28372192 5.13371277 C-32.6639879 3.81744585 -30.18805061 3.13371277 -26.28372192 3.13371277 C-26.28372192 2.47371277 -26.28372192 1.81371277 -26.28372192 1.13371277 C-17.53823771 -0.12358201 -8.81282952 -0.0088307 0 0 Z " fill="#96B8A9" transform="translate(61.283721923828125,169.8662872314453)"/>
<path d="M0 0 C0.75403488 -0.00295142 1.50806977 -0.00590285 2.28495419 -0.00894371 C4.82602487 -0.01764496 7.36705009 -0.01921628 9.90813446 -0.02082157 C11.74269643 -0.02555186 13.57725736 -0.03070268 15.41181707 -0.03623921 C20.46471185 -0.05015748 25.51759941 -0.05773235 30.57050848 -0.0642122 C34.90171254 -0.07058018 39.23290473 -0.08065071 43.5641014 -0.09077286 C57.83506127 -0.12410819 72.10602835 -0.14562039 86.3770144 -0.16397271 C90.09271976 -0.16876732 93.80842482 -0.17375069 97.52412987 -0.17877793 C120.59484662 -0.20974868 143.66556588 -0.23643598 166.73629761 -0.25319672 C172.08097081 -0.25714626 177.42564397 -0.26114572 182.77031708 -0.2652216 C183.43431626 -0.26572326 184.09831545 -0.26622493 184.78243583 -0.2667418 C206.30368987 -0.28315448 227.82483011 -0.32160405 249.34602819 -0.3725087 C272.10431992 -0.42624122 294.86254693 -0.4579189 317.62090254 -0.4653936 C330.02471779 -0.4700563 342.42834472 -0.48481249 354.83209991 -0.5251379 C365.39603798 -0.55944011 375.95975372 -0.57337633 386.52374429 -0.56071376 C391.91264812 -0.55488744 397.30108177 -0.55874954 402.6899147 -0.5888834 C407.62757325 -0.61626868 412.56442809 -0.6157297 417.5021047 -0.59337295 C419.28416376 -0.59015355 421.06627685 -0.59699768 422.84824616 -0.61517017 C433.65649343 -0.71867145 441.27363193 0.09361793 450.57598114 6.1398077 C450.57598114 6.7998077 450.57598114 7.4598077 450.57598114 8.1398077 C451.15348114 8.2016827 451.73098114 8.2635577 452.32598114 8.3273077 C455.50046597 9.47364945 456.70446689 11.39937613 458.57598114 14.1398077 C458.57598114 14.7998077 458.57598114 15.4598077 458.57598114 16.1398077 C459.56598114 16.4698077 460.55598114 16.7998077 461.57598114 17.1398077 C466.29279772 24.22203082 467.38703672 31.90170017 468.21660614 40.1476202 C468.24892108 43.01866118 468.24892108 43.01866118 469.57598114 44.1398077 C470.53975296 54.01846886 464.07301354 64.79337398 458.26348114 72.4523077 C449.76156072 80.95422812 438.96625061 86.17054964 426.91020966 86.35098934 C424.75837976 86.34397992 422.60656556 86.32646033 420.45488739 86.29996395 C419.31438431 86.29476238 418.17388123 86.28956081 416.99881744 86.28420162 C413.37857219 86.26647319 409.75861706 86.23528148 406.13848114 86.2023077 C402.49338094 86.17472057 398.84831888 86.15004405 395.20316315 86.13112545 C392.93950577 86.11883034 390.67587015 86.10119032 388.41230011 86.07781124 C386.88952705 86.06801487 386.88952705 86.06801487 385.33599091 86.05802059 C383.98985466 86.04564106 383.98985466 86.04564106 382.61652374 86.03301144 C380.58141042 85.91131745 380.58141042 85.91131745 379.57598114 87.1398077 C377.07598114 87.2648077 377.07598114 87.2648077 374.57598114 87.1398077 C374.24598114 86.8098077 373.91598114 86.4798077 373.57598114 86.1398077 C372.17249379 86.04120639 370.76417637 86.00901834 369.35723114 86.0069952 C368.50773895 86.00570614 367.65824677 86.00441708 366.78301239 86.00308895 C365.88969208 86.00695614 364.99637177 86.01082333 364.07598114 86.0148077 C363.18266083 86.01094051 362.28934052 86.00707333 361.36894989 86.00308895 C360.09471161 86.00502254 360.09471161 86.00502254 358.79473114 86.0069952 C357.61813934 86.0086871 357.61813934 86.0086871 356.41777802 86.01041317 C354.55845126 85.93873328 354.55845126 85.93873328 353.57598114 87.1398077 C351.5763975 87.18061553 349.5755286 87.18235126 347.57598114 87.1398077 C347.57598114 86.4798077 347.57598114 85.8198077 347.57598114 85.1398077 C344.42976432 85.27802969 341.28412548 85.42665854 338.13848114 85.5773077 C337.24064911 85.61662411 336.34281708 85.65594051 335.41777802 85.69644833 C334.56377411 85.73834286 333.7097702 85.78023739 332.82988739 85.82340145 C332.03912811 85.86005917 331.24836884 85.89671688 330.43364716 85.93448544 C328.56196673 85.94544027 328.56196673 85.94544027 327.57598114 87.1398077 C324.57598114 87.2648077 324.57598114 87.2648077 321.57598114 87.1398077 C321.24598114 86.8098077 320.91598114 86.4798077 320.57598114 86.1398077 C319.17249379 86.04120639 317.76417637 86.00901834 316.35723114 86.0069952 C315.50773895 86.00570614 314.65824677 86.00441708 313.78301239 86.00308895 C312.88969208 86.00695614 311.99637177 86.01082333 311.07598114 86.0148077 C310.18266083 86.01094051 309.28934052 86.00707333 308.36894989 86.00308895 C307.09471161 86.00502254 307.09471161 86.00502254 305.79473114 86.0069952 C304.61813934 86.0086871 304.61813934 86.0086871 303.41777802 86.01041317 C301.55845126 85.93873328 301.55845126 85.93873328 300.57598114 87.1398077 C298.07598114 87.2648077 298.07598114 87.2648077 295.57598114 87.1398077 C295.24598114 86.8098077 294.91598114 86.4798077 294.57598114 86.1398077 C293.17249379 86.04120639 291.76417637 86.00901834 290.35723114 86.0069952 C289.50773895 86.00570614 288.65824677 86.00441708 287.78301239 86.00308895 C286.88969208 86.00695614 285.99637177 86.01082333 285.07598114 86.0148077 C284.18266083 86.01094051 283.28934052 86.00707333 282.36894989 86.00308895 C281.09471161 86.00502254 281.09471161 86.00502254 279.79473114 86.0069952 C278.61813934 86.0086871 278.61813934 86.0086871 277.41777802 86.01041317 C275.55845126 85.93873328 275.55845126 85.93873328 274.57598114 87.1398077 C272.5763975 87.18061553 270.5755286 87.18235126 268.57598114 87.1398077 C268.57598114 86.4798077 268.57598114 85.8198077 268.57598114 85.1398077 C265.42976432 85.27802969 262.28412548 85.42665854 259.13848114 85.5773077 C258.24064911 85.61662411 257.34281708 85.65594051 256.41777802 85.69644833 C255.56377411 85.73834286 254.7097702 85.78023739 253.82988739 85.82340145 C253.03912811 85.86005917 252.24836884 85.89671688 251.43364716 85.93448544 C249.56196673 85.94544027 249.56196673 85.94544027 248.57598114 87.1398077 C245.57598114 87.2648077 245.57598114 87.2648077 242.57598114 87.1398077 C242.24598114 86.8098077 241.91598114 86.4798077 241.57598114 86.1398077 C240.17249379 86.04120639 238.76417637 86.00901834 237.35723114 86.0069952 C236.50773895 86.00570614 235.65824677 86.00441708 234.78301239 86.00308895 C233.88969208 86.00695614 232.99637177 86.01082333 232.07598114 86.0148077 C231.18266083 86.01094051 230.28934052 86.00707333 229.36894989 86.00308895 C228.09471161 86.00502254 228.09471161 86.00502254 226.79473114 86.0069952 C225.61813934 86.0086871 225.61813934 86.0086871 224.41777802 86.01041317 C222.55845126 85.93873328 222.55845126 85.93873328 221.57598114 87.1398077 C219.07598114 87.2648077 219.07598114 87.2648077 216.57598114 87.1398077 C216.24598114 86.8098077 215.91598114 86.4798077 215.57598114 86.1398077 C214.17249379 86.04120639 212.76417637 86.00901834 211.35723114 86.0069952 C210.50773895 86.00570614 209.65824677 86.00441708 208.78301239 86.00308895 C207.88969208 86.00695614 206.99637177 86.01082333 206.07598114 86.0148077 C205.18266083 86.01094051 204.28934052 86.00707333 203.36894989 86.00308895 C202.09471161 86.00502254 202.09471161 86.00502254 200.79473114 86.0069952 C200.01033661 86.00812313 199.22594208 86.00925106 198.41777802 86.01041317 C196.55845126 85.93873328 196.55845126 85.93873328 195.57598114 87.1398077 C193.5763975 87.18061553 191.5755286 87.18235126 189.57598114 87.1398077 C189.57598114 86.4798077 189.57598114 85.8198077 189.57598114 85.1398077 C186.42976432 85.27802969 183.28412548 85.42665854 180.13848114 85.5773077 C179.24064911 85.61662411 178.34281708 85.65594051 177.41777802 85.69644833 C176.56377411 85.73834286 175.7097702 85.78023739 174.82988739 85.82340145 C174.03912811 85.86005917 173.24836884 85.89671688 172.43364716 85.93448544 C170.56196673 85.94544027 170.56196673 85.94544027 169.57598114 87.1398077 C166.57598114 87.2648077 166.57598114 87.2648077 163.57598114 87.1398077 C163.24598114 86.8098077 162.91598114 86.4798077 162.57598114 86.1398077 C161.17249379 86.04120639 159.76417637 86.00901834 158.35723114 86.0069952 C157.50773895 86.00570614 156.65824677 86.00441708 155.78301239 86.00308895 C154.88969208 86.00695614 153.99637177 86.01082333 153.07598114 86.0148077 C152.18266083 86.01094051 151.28934052 86.00707333 150.36894989 86.00308895 C149.09471161 86.00502254 149.09471161 86.00502254 147.79473114 86.0069952 C147.01033661 86.00812313 146.22594208 86.00925106 145.41777802 86.01041317 C143.55845126 85.93873328 143.55845126 85.93873328 142.57598114 87.1398077 C140.07598114 87.2648077 140.07598114 87.2648077 137.57598114 87.1398077 C137.24598114 86.8098077 136.91598114 86.4798077 136.57598114 86.1398077 C135.17249379 86.04120639 133.76417637 86.00901834 132.35723114 86.0069952 C131.50773895 86.00570614 130.65824677 86.00441708 129.78301239 86.00308895 C128.88969208 86.00695614 127.99637177 86.01082333 127.07598114 86.0148077 C126.18266083 86.01094051 125.28934052 86.00707333 124.36894989 86.00308895 C123.09471161 86.00502254 123.09471161 86.00502254 121.79473114 86.0069952 C121.01033661 86.00812313 120.22594208 86.00925106 119.41777802 86.01041317 C117.55845126 85.93873328 117.55845126 85.93873328 116.57598114 87.1398077 C113.57598114 87.2648077 113.57598114 87.2648077 110.57598114 87.1398077 C110.24598114 86.8098077 109.91598114 86.4798077 109.57598114 86.1398077 C108.24554489 86.0414356 106.9100477 86.00902178 105.57598114 86.0069952 C104.77160614 86.00570614 103.96723114 86.00441708 103.13848114 86.00308895 C102.29285614 86.00695614 101.44723114 86.01082333 100.57598114 86.0148077 C99.30754364 86.00900692 99.30754364 86.00900692 98.01348114 86.00308895 C97.20910614 86.00437801 96.40473114 86.00566708 95.57598114 86.0069952 C94.46223114 86.0086871 94.46223114 86.0086871 93.32598114 86.01041317 C91.54772303 85.95038554 91.54772303 85.95038554 90.57598114 87.1398077 C87.57598114 87.2648077 87.57598114 87.2648077 84.57598114 87.1398077 C84.24598114 86.8098077 83.91598114 86.4798077 83.57598114 86.1398077 C82.17249379 86.04120639 80.76417637 86.00901834 79.35723114 86.0069952 C78.50773895 86.00570614 77.65824677 86.00441708 76.78301239 86.00308895 C75.88969208 86.00695614 74.99637177 86.01082333 74.07598114 86.0148077 C73.18266083 86.01094051 72.28934052 86.00707333 71.36894989 86.00308895 C70.09471161 86.00502254 70.09471161 86.00502254 68.79473114 86.0069952 C68.01033661 86.00812313 67.22594208 86.00925106 66.41777802 86.01041317 C64.55845126 85.93873328 64.55845126 85.93873328 63.57598114 87.1398077 C61.07598114 87.2648077 61.07598114 87.2648077 58.57598114 87.1398077 C58.24598114 86.8098077 57.91598114 86.4798077 57.57598114 86.1398077 C56.17249379 86.04120639 54.76417637 86.00901834 53.35723114 86.0069952 C52.50773895 86.00570614 51.65824677 86.00441708 50.78301239 86.00308895 C49.88969208 86.00695614 48.99637177 86.01082333 48.07598114 86.0148077 C47.18266083 86.01094051 46.28934052 86.00707333 45.36894989 86.00308895 C44.09471161 86.00502254 44.09471161 86.00502254 42.79473114 86.0069952 C42.01033661 86.00812313 41.22594208 86.00925106 40.41777802 86.01041317 C38.55845126 85.93873328 38.55845126 85.93873328 37.57598114 87.1398077 C34.57598114 87.2648077 34.57598114 87.2648077 31.57598114 87.1398077 C31.24598114 86.8098077 30.91598114 86.4798077 30.57598114 86.1398077 C29.24554489 86.0414356 27.9100477 86.00902178 26.57598114 86.0069952 C25.77160614 86.00570614 24.96723114 86.00441708 24.13848114 86.00308895 C23.29285614 86.00695614 22.44723114 86.01082333 21.57598114 86.0148077 C20.73035614 86.01094051 19.88473114 86.00707333 19.01348114 86.00308895 C18.20910614 86.00437801 17.40473114 86.00566708 16.57598114 86.0069952 C15.46223114 86.0086871 15.46223114 86.0086871 14.32598114 86.01041317 C12.54772303 85.95038554 12.54772303 85.95038554 11.57598114 87.1398077 C8.57598114 87.2648077 8.57598114 87.2648077 5.57598114 87.1398077 C5.24598114 86.8098077 4.91598114 86.4798077 4.57598114 86.1398077 C3.19923304 85.93795645 1.81397551 85.7932261 0.42754364 85.67496395 C-0.41292511 85.59697567 -1.25339386 85.51898739 -2.11933136 85.43863583 C-3.89769851 85.28179732 -5.67634761 85.12812181 -7.45526886 84.97769833 C-8.29831573 84.89842098 -9.14136261 84.81914364 -10.00995636 84.73746395 C-10.78387726 84.67051327 -11.55779816 84.60356258 -12.3551712 84.53458309 C-14.42401886 84.1398077 -14.42401886 84.1398077 -17.42401886 82.1398077 C-17.42401886 81.4798077 -17.42401886 80.8198077 -17.42401886 80.1398077 C-18.50683136 79.7685577 -18.50683136 79.7685577 -19.61151886 79.3898077 C-25.2509864 76.88337768 -28.64300576 72.90486837 -32.04901886 67.8898077 C-32.80440948 66.81215145 -33.55980011 65.7344952 -34.33808136 64.6241827 C-38.8569742 57.44313939 -39.90772036 51.05813461 -39.79901886 42.6398077 C-39.81062042 41.74133114 -39.82222198 40.84285458 -39.83417511 39.91715145 C-39.79454999 30.84299933 -36.54460885 24.09680906 -32.42401886 16.1398077 C-31.76401886 16.1398077 -31.10401886 16.1398077 -30.42401886 16.1398077 C-30.15589386 15.54039364 -29.88776886 14.94097958 -29.61151886 14.32340145 C-25.78138976 7.28049958 -17.09926744 3.0044177 -9.74226809 0.58726639 C-6.49824069 -0.03888209 -3.29057803 -0.00427704 0 0 Z " fill="#96B7A9" transform="translate(42.42401885986328,2.86019229888916)"/>
<path d="M0 0 C0.43125014 3.91575125 0.32085319 5.55205157 -2.01171875 8.80859375 C-2.89472656 9.67613281 -3.77773438 10.54367187 -4.6875 11.4375 C-5.55761719 12.32308594 -6.42773438 13.20867187 -7.32421875 14.12109375 C-10 16 -10 16 -12.83203125 15.78515625 C-13.54746094 15.52605469 -14.26289063 15.26695312 -15 15 C-15.33 14.01 -15.66 13.02 -16 12 C-15.48050781 11.55269531 -14.96101563 11.10539062 -14.42578125 10.64453125 C-9.65561289 6.51251744 -9.65561289 6.51251744 -5.1875 2.0625 C-3 0 -3 0 0 0 Z " fill="#B2CECE" transform="translate(512,337)"/>
<path d="M0 0 C0.99 0.33 1.98 0.66 3 1 C-1.33333333 5.33333333 -5.66666667 9.66666667 -10 14 C-10.66 13.34 -11.32 12.68 -12 12 C-8 8 -4 4 0 0 Z " fill="#88A1A1" transform="translate(509,337)"/>
<path d="M0 0 C0.721875 0.391875 1.44375 0.78375 2.1875 1.1875 C2.1875 1.8475 2.1875 2.5075 2.1875 3.1875 C1.5275 3.1875 0.8675 3.1875 0.1875 3.1875 C-0.1425 4.1775 -0.4725 5.1675 -0.8125 6.1875 C-2.4625 5.8575 -4.1125 5.5275 -5.8125 5.1875 C-5.8125 4.5275 -5.8125 3.8675 -5.8125 3.1875 C-6.4725 2.8575 -7.1325 2.5275 -7.8125 2.1875 C-3.50480769 -1.0125 -3.50480769 -1.0125 0 0 Z " fill="#A0B4B3" transform="translate(493.8125,171.8125)"/>
<path d="M0 0 C1.32 0 2.64 0 4 0 C2.64978174 4.41889613 0.73884332 6.34345343 -3 9 C-3.33 8.34 -3.66 7.68 -4 7 C-3.22265625 5.2734375 -3.22265625 5.2734375 -2.0625 3.375 C-1.381875 2.26125 -0.70125 1.1475 0 0 Z " fill="#282828" transform="translate(20,170)"/>
<path d="M0 0 C0.33 0.66 0.66 1.32 1 2 C1.99 2 2.98 2 4 2 C4.33 2.99 4.66 3.98 5 5 C2.69 5.33 0.38 5.66 -2 6 C-2.33 5.01 -2.66 4.02 -3 3 C-2.01 2.01 -1.02 1.02 0 0 Z " fill="#8A9A9A" transform="translate(13,411)"/>
<path d="M0 0 C0.33 0 0.66 0 1 0 C1 2.64 1 5.28 1 8 C0.01 8.33 -0.98 8.66 -2 9 C-2.6875 6.75 -2.6875 6.75 -3 4 C-1.625 1.6875 -1.625 1.6875 0 0 Z " fill="#A8C7C7" transform="translate(511,361)"/>
<path d="M0 0 C2.31 0 4.62 0 7 0 C6.67 0.99 6.34 1.98 6 3 C3.36 3.33 0.72 3.66 -2 4 C-1.34 2.68 -0.68 1.36 0 0 Z " fill="#788080" transform="translate(35,337)"/>
<path d="M0 0 C0.99 0.33 1.98 0.66 3 1 C3 1.66 3 2.32 3 3 C3.66 3 4.32 3 5 3 C5 2.34 5 1.68 5 1 C5.66 1.33 6.32 1.66 7 2 C6.01 3.485 6.01 3.485 5 5 C3.35 4.67 1.7 4.34 0 4 C0 2.68 0 1.36 0 0 Z " fill="#77817E" transform="translate(17,249)"/>
<path d="M0 0 C1.32 1.32 2.64 2.64 4 4 C3 5 3 5 0.4375 5.0625 C-0.7690625 5.0315625 -0.7690625 5.0315625 -2 5 C-1.125 1.125 -1.125 1.125 0 0 Z " fill="#ADC7C7" transform="translate(6,234)"/>
<path d="M0 0 C0.66 0 1.32 0 2 0 C1.43628586 3.26954202 0.50037734 4.82575883 -2 7 C-2.125 4.625 -2.125 4.625 -2 2 C-1.34 1.34 -0.68 0.68 0 0 Z " fill="#A0BABA" transform="translate(2,215)"/>
<path d="" fill="#000000" transform="translate(0,0)"/>
<path d="" fill="#000000" transform="translate(0,0)"/>
</svg>
